<?xml version="1.0" encoding="UTF-8" standalone="no"?>
<!-- Created with Inkscape (http://www.inkscape.org/) -->
<svg
   xmlns:svg="http://www.w3.org/2000/svg"
   xmlns="http://www.w3.org/2000/svg"
   xmlns:sodipodi="http://sodipodi.sourceforge.net/DTD/sodipodi-0.dtd"
   xmlns:inkscape="http://www.inkscape.org/namespaces/inkscape"
   version="1.0"
   width="118.76637"
   height="344.4494"
   id="svg2">
  <defs
     id="defs5">
    <inkscape:perspective
       id="perspective9"
       inkscape:persp3d-origin="372.04724 : 350.78739 : 1"
       inkscape:vp_z="744.09448 : 526.18109 : 1"
       inkscape:vp_y="0 : 1000 : 0"
       inkscape:vp_x="0 : 526.18109 : 1"
       sodipodi:type="inkscape:persp3d" />
  </defs>
  <path
     d="M 59.497223,342.459 C 58.098803,341.359 55.533534,340.459 53.796624,340.459 C 49.305114,340.459 47.095184,338.97408 45.815344,335.0961 C 45.202134,333.23806 42.691094,329.67973 40.235254,327.1887 C 34.652074,321.52553 34.304214,318.1491 38.913594,314.36028 C 42.515674,311.39945 42.067864,309.459 37.782504,309.459 C 34.026914,309.459 32.112544,307.40868 28.638484,299.66566 C 25.231254,292.0716 23.150054,284.91114 22.231034,277.62053 C 21.860904,274.68436 20.480784,269.63081 19.164084,266.3904 C 17.836424,263.12299 16.770094,258.44441 16.770094,255.8866 C 16.770094,252.78865 16.113484,250.43971 14.770094,248.73187 C 12.638444,246.02192 12.118414,241.97979 13.770094,240.959 C 14.320094,240.61908 14.770094,239.84778 14.770094,239.245 C 14.770094,238.64221 13.947164,238.89377 12.941354,239.80401 C 8.6506936,243.68701 3.6795936,239.73322 3.7372936,232.48351 C 3.7571036,229.99503 3.7759336,226.84513 3.7791436,225.48374 C 3.7880836,221.69197 8.5768836,216.55132 18.133724,210.07447 C 25.255824,205.2477 27.845974,204.05794 32.543334,203.45559 L 38.270094,202.72123 L 32.520094,202.59012 C 28.665574,202.50222 26.765234,202.04694 26.755354,201.209 C 26.747244,200.5215 26.176284,201.07431 25.486554,202.43747 C 24.730784,203.93115 22.465464,205.56868 19.785334,206.55871 C 17.339394,207.46223 13.514864,210.05942 11.286384,212.33024 C 6.7044536,216.9992 5.3260736,217.36638 3.7108036,214.34822 C 2.3901836,211.88062 2.8897936,207.19873 5.3191036,199.27657 L 7.0616036,193.59415 L 4.4158436,190.44985 C 1.4346536,186.9069 1.0599036,184.29329 3.2700936,182.459 C 4.0950936,181.77431 4.7700936,180.45731 4.7700936,179.53234 C 4.7700936,178.60736 6.1292836,175.70734 7.7905236,173.08784 C 10.774084,168.38325 10.788904,168.29237 9.0044836,165.64206 C 4.5443636,159.01764 4.4003236,158.0927 7.1889036,153.9835 C 9.6415536,150.36932 9.7693536,149.52701 9.7553136,137.06945 C 9.7371236,120.93802 8.0366536,112.89706 3.1254136,105.71891 C 0.2588336,101.52917 -0.3365464,99.875487 0.1551436,97.468907 C 0.4933636,95.813457 1.0421836,93.136127 1.3747436,91.519275 C 2.2270636,87.375463 4.9495936,85.305803 10.348794,84.697237 C 13.660224,84.323991 14.562994,83.922605 13.468574,83.310137 C 12.602604,82.825515 10.908994,82.832451 9.5993036,83.325983 C 7.0049436,84.303612 2.7700936,83.125093 2.7700936,81.42548 C 2.7700936,79.241763 4.9411936,76.344442 7.2295036,75.474429 C 11.275984,73.935958 13.307294,65.931075 13.054324,52.520216 C 12.935654,46.228886 13.252094,40.583147 13.757534,39.974129 C 14.262974,39.365112 14.698714,37.987563 14.725854,36.912911 C 14.752984,35.838258 15.043974,33.070983 15.372484,30.76341 C 15.934804,26.813582 16.177664,26.549991 19.518664,26.26341 C 21.470544,26.095983 23.422084,25.283997 23.855404,24.458997 C 26.225474,19.946672 27.684344,16.129264 27.285404,15.483762 C 27.036474,15.080992 27.998974,14.220113 29.424284,13.570698 C 32.714984,12.071351 35.889954,13.919928 37.754224,18.420682 C 38.902634,21.193202 38.825594,21.781384 37.056394,23.748145 C 33.868184,27.292382 33.701194,28.049842 35.276734,31.820644 C 37.346754,36.774895 37.184234,37.677676 33.816114,39.93428 C 31.198924,41.687766 31.030814,42.08961 32.318984,43.513021 C 34.459904,45.878714 34.108854,48.249961 30.859494,53.37145 C 26.278424,60.591916 25.333954,64.997777 26.977134,71.482323 C 28.774794,78.576538 28.216864,87.458993 25.973584,87.458993 C 24.726424,87.458993 24.636764,87.725663 25.570094,88.658993 C 26.230094,89.318993 26.770094,90.462223 26.770094,91.199495 C 26.770094,91.936765 27.745094,93.858747 28.936764,95.470557 C 31.936214,99.527537 31.621134,103.06355 27.703764,109.30792 C 24.832754,113.88439 24.371054,115.47295 24.506734,120.30792 C 24.664654,125.93526 28.588114,137.32274 33.820634,147.3406 C 35.785494,151.10242 35.946244,152.15398 34.957044,154.77466 C 32.944644,160.10613 34.639854,158.98516 37.266694,153.24739 C 41.569214,143.84945 42.470204,129.49151 40.140004,107.459 C 39.820074,104.434 38.930964,100.96233 38.164204,99.744177 C 36.193274,96.612967 36.434804,93.708807 38.770094,92.458997 C 41.057364,91.234885 41.411534,88.919113 39.427874,88.157913 C 37.560484,87.441333 37.937904,81.036035 39.980514,78.778977 C 44.227554,74.086051 45.012724,63.855261 41.787434,55.234888 C 40.509744,51.819968 40.003714,48.69539 40.364264,46.447375 C 40.671984,44.528767 40.886414,41.778899 40.840764,40.336558 C 40.795114,38.894216 41.455544,37.135013 42.308384,36.427216 C 43.380534,35.537411 43.663734,34.251238 43.226174,32.259015 C 42.815744,30.390377 43.147674,28.531678 44.170594,26.970504 C 45.139624,25.491576 45.366524,24.327611 44.758974,23.952127 C 43.171174,22.97081 43.618764,20.456619 45.520094,19.676773 C 46.482594,19.281996 47.270094,18.312602 47.270094,17.522565 C 47.270094,15.903478 53.640404,13.886033 54.777114,15.14513 C 56.459403,17.008544 56.823073,21.501436 55.337744,22.071409 C 54.312974,22.464651 54.028184,23.499455 54.413924,25.42817 C 54.720634,26.961717 54.569004,28.465244 54.076964,28.769342 C 53.584924,29.07344 53.284734,32.155378 53.409884,35.618093 C 53.535024,39.080807 53.205784,42.434023 52.678234,43.069684 C 52.040384,43.838241 52.176584,44.401005 53.084784,44.749514 C 55.186524,45.556025 54.900994,53.908842 52.593364,59.125627 C 49.844304,65.340331 50.781154,73.793727 54.839904,79.396676 C 57.507313,83.078922 57.597593,83.488643 56.076653,85.009583 C 54.882454,86.203783 54.380644,88.753313 54.232744,94.377997 C 54.120984,98.628227 53.518414,103.06075 52.893704,104.22803 C 51.494864,106.84179 49.807234,126.39611 49.785924,140.23752 C 49.771374,149.68726 50.011984,150.99522 52.770094,156.459 C 54.917794,160.71357 55.770094,163.83057 55.770094,167.43048 C 55.770094,171.94471 55.995093,172.459 57.970093,172.459 C 59.681203,172.459 59.903423,172.19233 58.970093,171.259 C 58.291323,170.58023 57.770093,167.32891 57.770093,163.77362 C 57.770093,158.61994 58.355263,156.37273 61.020093,151.29281 C 64.243603,145.14789 64.272503,144.9664 64.566343,129.02819 C 64.803423,116.16821 64.525983,111.86058 63.177123,107.459 C 61.676063,102.56076 61.459353,99.761497 61.757623,89.123163 C 61.801353,87.563453 62.716763,85.088453 63.791853,83.623163 C 64.866953,82.157872 66.504623,77.868438 67.431123,74.091088 C 69.099753,67.288087 69.092833,67.15733 66.699563,60.255594 C 64.323083,53.402298 64.315183,53.264806 66.217903,51.873503 C 67.931123,50.62076 67.955943,50.458997 66.434853,50.458997 C 64.972463,50.458997 64.753213,49.550846 64.958793,44.34508 C 65.110773,40.496663 65.673733,38.049467 66.478053,37.740821 C 67.251233,37.444127 67.531543,36.356711 67.187843,34.987327 C 66.489833,32.206228 70.921583,26.919415 73.213613,27.798948 C 75.292783,28.596801 76.273423,33.147594 74.759313,34.971983 C 73.777123,36.155453 73.793083,36.781767 74.837483,38.040198 C 75.818333,39.222048 75.872433,40.065473 75.051703,41.379675 C 74.379543,42.455975 74.299973,43.685046 74.846553,44.548474 C 76.411243,47.020188 75.846853,48.945941 73.020093,50.7806 C 71.010593,52.084826 70.822763,52.415206 72.322553,52.007527 C 73.451403,51.700677 75.238393,52.080941 76.293643,52.852558 C 78.114473,54.183982 78.137643,54.579288 76.748213,60.607248 C 74.886453,68.684315 74.891713,79.586592 76.760323,85.762893 C 77.677863,88.795583 77.855423,90.823435 77.241913,91.262895 C 76.707413,91.645745 76.154493,94.433997 76.013203,97.458997 C 75.871923,100.484 75.308653,104.31807 74.761513,105.97915 C 71.284763,116.53425 71.409293,152.69783 74.946653,159.74446 C 76.467553,162.7742 76.789343,165.26968 76.558513,172.24446 C 76.279523,180.67402 76.194783,180.9509 73.967123,180.7114 C 71.731423,180.47104 71.745353,180.53365 74.443913,182.85485 L 77.223663,185.24589 L 75.310703,193.10245 C 73.755543,199.48951 72.722023,201.61711 69.785093,204.47757 C 66.486493,207.69027 61.363573,217.44631 63.749483,215.97174 C 64.310813,215.62481 64.770093,214.8768 64.770093,214.30948 C 64.770093,213.74216 66.685083,210.95621 69.025623,208.11849 C 73.831113,202.29221 76.989323,197.01156 76.162723,196.18496 C 75.857653,195.87989 76.110343,194.69175 76.724253,193.54465 C 77.954223,191.24643 81.676033,190.76494 83.570093,192.659 C 84.503423,193.59233 84.770093,193.58683 84.770093,192.63425 C 84.770093,191.96064 83.739103,191.01752 82.478993,190.53842 C 81.218893,190.05933 79.642663,189.01038 78.976263,188.20742 C 77.194753,186.06084 76.845473,180.7964 78.342723,178.65877 C 79.059503,177.63542 79.606103,175.39594 79.557373,173.68216 C 79.497093,171.56204 80.425193,169.47691 82.461383,167.15781 C 88.306203,160.50094 90.890523,140.94102 88.697433,119.959 C 88.007593,113.359 87.347473,104.96873 87.230513,101.31395 C 87.113553,97.659177 86.729673,94.202617 86.377453,93.632717 C 86.025233,93.062807 86.869483,90.927775 88.253573,88.888203 C 91.431523,84.205233 91.547873,78.338504 88.685173,67.126408 C 87.141443,61.080205 86.876553,58.51817 87.664693,57.256155 C 88.315073,56.214742 88.362963,55.325413 87.787823,54.969956 C 87.201083,54.607327 87.208793,53.435327 87.808303,51.858496 C 88.337283,50.467162 88.770093,48.03465 88.770093,46.452914 C 88.770093,44.871178 89.238393,43.287603 89.810773,42.933857 C 90.383143,42.580111 90.567583,41.396305 90.220633,40.303176 C 89.560763,38.224081 92.130543,34.458997 94.209473,34.458997 C 95.782263,34.458997 99.026493,40.182502 97.861733,40.902363 C 96.660133,41.644987 96.665983,59.27662 97.868063,60.019548 C 99.133513,60.801638 99.001813,70.523486 97.601103,79.72585 C 96.463403,87.200323 96.505593,87.609963 98.721843,90.607603 C 100.70792,93.293927 100.88259,94.185807 99.991343,97.089767 C 99.422943,98.941767 99.339643,100.69297 99.806213,100.98133 C 100.27279,101.26969 100.94471,103.44062 101.29936,105.80562 C 101.802,109.15747 101.39496,111.41248 99.453373,116.03231 C 95.031953,126.55273 93.354583,154.07226 96.468773,164.9989 C 98.253183,171.25979 99.092893,190.33548 97.743593,193.959 C 97.333983,195.059 97.120853,191.459 97.269963,185.959 C 97.480053,178.20991 97.067313,174.27081 95.436293,168.459 C 91.877763,155.77883 93.398993,127.80408 98.364433,114.61213 C 100.99591,107.62093 101.29002,106.01963 99.770093,106.959 C 99.188953,107.31817 98.770093,106.3299 98.770093,104.59958 C 98.770093,100.5747 93.028623,96.715087 89.695173,98.499097 C 87.878753,99.471207 87.639153,100.22707 88.171483,103.3058 C 90.437533,116.41143 90.968333,124.44323 90.491843,138.41603 C 89.870253,156.64374 88.376963,163.20592 83.768733,167.9604 C 81.250273,170.55879 80.627023,171.93026 81.023103,174.0022 C 81.304913,175.47641 80.916053,177.86978 80.158953,179.32079 C 77.929353,183.59394 78.651363,188.459 81.515133,188.459 C 82.357213,188.459 85.656953,191.27149 88.847893,194.70899 C 94.615773,200.92255 94.655403,200.9444 95.646453,198.45899 L 97.487573,191.92534 L 97.581363,194.42534 C 97.669433,196.77281 96.899773,200.8403 97.959573,199.01355 C 98.580333,197.94355 99.188563,193.20809 99.311193,188.49032 C 99.433813,183.77254 100.02136,177.44799 100.61684,174.43577 C 103.14697,161.63732 104.9919,140.86 104.2554,133.459 C 102.93586,120.19916 103.68395,109.76561 106.23318,105.87498 C 108.8603,101.86549 109.30626,94.815187 107.35691,88.109633 C 105.86141,82.965297 105.85581,82.25781 107.29323,80.064018 C 108.5381,78.164111 108.59619,77.560128 107.56967,77.18951 C 106.58958,76.835655 106.53663,76.257959 107.35427,74.83965 C 107.95058,73.805291 108.32596,70.933997 108.18847,68.458997 C 108.04046,65.794595 108.48188,63.347131 109.27062,62.458997 C 110.0033,61.633997 110.75291,59.612845 110.93643,57.967548 C 111.37391,54.045319 113.98491,53.61171 116.25972,57.083508 C 117.60227,59.132512 117.7781,60.216523 116.97617,61.500619 C 116.22687,62.700435 116.22639,63.515299 116.97454,64.263449 C 117.55815,64.847061 117.74615,66.078999 117.39231,67.001089 C 116.88179,68.331478 115.97692,68.544158 113.00953,68.031206 C 110.30981,67.564525 109.68715,67.668895 110.77009,68.406584 C 111.59509,68.968567 113.29849,69.435262 114.55543,69.443684 C 116.62597,69.457558 116.81054,69.858476 116.51906,73.708997 C 116.20388,77.87251 116.12685,77.955072 112.73371,77.766111 L 109.27009,77.573224 L 112.77009,78.850206 C 117.01904,80.400445 117.54156,82.620246 115.26845,89.463943 C 113.21996,95.631347 114.02949,104.47879 116.87817,107.05681 C 119.14597,109.10914 119.31741,111.75988 117.2911,113.44156 C 116.21669,114.33325 116.07991,115.16939 116.7911,116.49826 C 118.26252,119.24764 117.96144,123.26625 115.75719,130.29809 C 114.66428,133.7846 113.77009,139.2017 113.77009,142.3361 C 113.77009,145.4705 113.09869,153.41791 112.27808,159.99701 C 110.31018,175.77437 110.38597,180.93044 112.68227,187.49366 C 115.05682,194.28054 115.3158,212.03561 113.05291,212.90397 C 112.04782,213.28966 111.94852,213.92388 112.67941,215.28956 C 113.39994,216.63588 113.25806,217.74501 112.16583,219.30439 C 110.33953,221.9118 107.62221,222.07791 105.54712,219.709 C 103.30773,217.15251 96.770093,204.65747 96.770093,202.93392 C 96.770093,202.12271 96.395093,201.459 95.936763,201.459 C 93.909653,201.459 94.033033,202.93718 96.309243,205.92144 C 100.25464,211.09413 101.27341,215.04189 99.400523,217.90028 C 98.533093,219.22415 96.911383,220.59677 95.796733,220.95054 C 94.288813,221.42914 93.770093,222.45725 93.770093,224.96737 C 93.770093,226.82285 94.220093,228.61908 94.770093,228.959 C 96.573893,230.07381 95.818223,233.27598 93.280213,235.27238 C 91.315893,236.81752 91.061953,237.45634 92.077163,238.29888 C 92.784913,238.88626 94.197003,242.14778 95.215133,245.54669 C 96.929453,251.26972 96.951783,252.0846 95.517173,256.57075 C 93.970013,261.40884 93.971853,261.42071 96.976203,265.95645 C 100.32649,271.01446 100.32187,271.95081 96.887433,283.959 C 94.469553,292.41291 94.195873,302.12936 96.263933,306.09469 C 98.060193,309.53886 98.206953,314.78125 96.590933,317.77474 C 95.918363,319.02059 95.509213,323.11794 95.638573,327.31181 C 95.917313,336.34779 94.611393,338.69335 87.443713,342.03063 C 83.057323,344.07293 80.730953,344.44095 72.154953,344.44923 C 63.544763,344.45755 61.661523,344.16144 59.497223,342.459 z M 78.020193,342.5379 C 91.605203,341.11235 96.593173,335.68292 93.935793,325.21367 C 93.349663,322.90452 93.247513,320.77757 93.708783,320.48711 C 95.127733,319.59359 96.748603,312.22156 96.096953,309.62519 C 95.461463,307.0932 92.415233,303.459 90.928383,303.459 C 89.958013,303.459 87.770093,296.70101 87.770093,293.70376 C 87.770093,292.59101 86.952443,290.67081 85.953093,289.43666 C 84.435593,287.56263 83.790793,287.37755 82.041313,288.31385 C 78.212383,290.36303 73.036413,297.46207 70.786793,303.74987 C 67.634673,312.56017 66.235603,314.459 62.896263,314.459 C 59.403703,314.459 53.770094,312.56842 53.770094,311.39636 C 53.770094,309.67796 49.506934,308.28579 46.164794,308.91278 C 43.696604,309.37581 42.770094,310.07682 42.770094,311.48126 C 42.770094,312.54366 41.662644,314.13852 40.309084,315.02541 C 35.344144,318.27857 36.063714,321.23725 43.796964,329.36658 C 45.982184,331.66373 47.770094,334.18889 47.770094,334.97805 C 47.770094,337.22445 52.212344,339.63709 55.041214,338.92709 C 56.901403,338.46021 58.170543,338.95036 60.101643,340.88146 C 62.960273,343.74009 64.876053,343.91719 78.020193,342.5379 z M 69.345653,303.41535 C 72.578273,295.27788 74.369723,292.95991 82.636133,286.21879 C 85.940513,283.52411 85.536113,277.90758 81.779193,274.31726 C 80.134203,272.74522 78.102583,271.459 77.264493,271.459 C 76.426403,271.459 74.907923,270.08962 73.890093,268.41592 L 72.039483,265.37285 L 71.388883,269.44151 C 70.998853,271.88062 71.345413,276.12811 72.254183,280.04664 C 74.791703,290.98821 74.588813,291.7468 67.936823,296.18882 C 61.352513,300.58566 54.770094,307.39584 54.770094,309.81115 C 54.770094,310.75353 55.910173,311.67235 57.520093,312.02742 C 59.032593,312.36101 60.720093,312.75391 61.270093,312.90054 C 64.189993,313.679 66.211743,311.30433 69.345653,303.41535 z M 45.886444,307.5706 C 48.062744,307.06468 50.200744,307.1205 51.255534,307.71079 C 52.429454,308.36775 53.224074,308.34248 53.661774,307.63427 C 56.039783,303.78656 61.814973,297.97995 64.770093,296.4655 C 71.090753,293.22628 72.163313,291.28363 71.252683,284.72396 C 70.812523,281.55323 70.381913,274.684 70.295783,269.459 C 70.101523,257.67429 69.127003,252.09197 66.914423,250.08962 C 65.938633,249.20654 62.642443,248.34758 59.237273,248.089 C 55.955323,247.83979 52.324674,247.33615 51.169174,246.9698 C 49.840664,246.5486 48.488214,246.88374 47.490594,247.88135 C 45.522054,249.8499 43.017354,249.87809 38.481174,247.98275 C 32.137074,245.33201 19.302524,248.02763 18.933364,252.08834 C 18.423084,257.70119 19.070384,262.88362 20.758334,266.69951 C 21.802664,269.06039 23.152464,274.13459 23.757894,277.97551 C 25.199364,287.12034 26.646404,292.459 27.683634,292.459 C 28.143684,292.459 28.810434,293.9107 29.165294,295.68501 C 30.150854,300.61282 33.687284,307.28208 35.579324,307.78108 C 38.414044,308.5287 42.087754,308.45368 45.886444,307.5706 z M 93.801503,289.959 C 94.342273,287.209 95.743993,281.98101 96.916433,278.34124 L 99.048143,271.72348 L 95.778523,266.97126 L 92.508913,262.21903 L 94.154293,256.30091 C 95.465583,251.58444 95.558373,249.93368 94.611233,248.1709 C 93.957593,246.95435 93.139923,244.609 92.794183,242.959 C 92.104873,239.66933 91.695503,239.59992 81.233503,240.99894 C 76.891363,241.57958 75.252213,241.24409 69.345193,238.56572 C 61.022703,234.79212 59.014733,234.68534 57.773393,237.95032 C 56.022363,242.55587 58.217883,245.41871 63.520093,245.44369 C 65.383493,245.45247 67.595683,246.28459 68.705163,247.39407 C 70.826823,249.51573 72.755783,255.3829 72.764513,259.74112 C 72.773813,264.37991 75.415083,269.37387 78.471723,270.53197 C 83.991543,272.62333 85.770093,275.2799 85.770093,281.43331 C 85.770093,284.52744 86.221693,287.5106 86.773653,288.06256 C 87.325603,288.61451 88.460063,291.68779 89.294673,294.89207 C 91.318233,302.66102 92.213713,303.78177 92.544183,298.959 C 92.694933,296.759 93.260723,292.709 93.801503,289.959 z M 31.770094,245.88207 C 35.345094,245.99377 39.741274,246.59036 41.539384,247.20781 C 43.337504,247.82527 44.578934,247.95872 44.298134,247.50438 C 43.628474,246.42084 50.321024,245.1817 52.723864,245.94433 C 54.400674,246.47653 54.532314,246.10509 54.020144,242.28658 C 53.554484,238.81487 52.517864,237.16632 48.360084,233.28536 C 45.560594,230.67224 41.758884,228.01634 39.911844,227.38334 C 32.927264,224.98967 25.283484,228.33816 18.689514,236.68016 C 14.679644,241.75303 13.888294,245.07414 15.915814,248.32073 C 17.015634,250.08182 17.225964,250.06565 21.165814,247.91714 C 24.389834,246.15899 26.664174,245.72252 31.770094,245.88207 z M 56.053463,241.53502 C 55.619774,238.30165 55.954273,237.18391 57.954043,235.18414 C 59.750223,233.38796 60.446493,231.49072 60.633203,227.88377 C 60.971103,221.35598 62.035413,205.39268 61.836423,226.56368 L 61.836423,231.59868 L 65.847713,232.74258 C 68.090393,233.04339 70.677893,233.96758 71.597713,234.79634 C 75.684023,238.47815 87.841033,238.02238 92.502673,234.0126 C 95.124173,231.75768 95.139773,231.67215 93.410803,229.03341 C 91.174803,225.62085 91.562223,220.23947 94.069803,219.87963 C 100.18449,219.00217 99.986503,213.01829 93.567313,204.69279 C 89.723183,199.70706 81.487163,192.54881 79.520093,192.48379 C 79.107593,192.47016 78.770093,192.95349 78.770093,193.55787 C 78.770093,194.16225 78.017213,196.29975 77.097013,198.30787 C 73.597993,205.94372 61.855893,223.10477 60.770093,219.0525 C 60.560063,218.26864 60.405793,217.35188 59.960523,217.07669 C 59.515263,216.80151 59.339593,219.18418 59.570143,222.37153 C 59.968743,227.88208 59.841303,228.2721 56.975343,230.31285 C 53.678454,232.66044 51.252664,233.04883 50.229274,231.39295 C 49.866904,230.80662 47.747824,229.00662 45.520214,227.39295 C 42.196044,224.98493 40.555814,224.48424 36.370054,224.5998 L 31.270094,224.7406 L 36.270094,225.36761 C 42.082674,226.09653 42.565544,226.35299 49.507474,232.39817 C 53.359804,235.75287 54.748194,237.66462 54.757474,239.62721 C 54.769414,242.152 55.633874,245.459 56.281923,245.459 C 56.445743,245.459 56.342933,243.69321 56.053463,241.53502 z M 14.955484,234.709 C 20.668274,227.11709 27.584964,223.459 36.226904,223.459 C 42.518474,223.459 44.652794,224.35681 49.948844,229.23119 L 52.627594,231.69666 L 55.698844,229.50973 C 58.257813,227.68759 58.770093,226.65024 58.770093,223.29062 C 58.770093,219.88619 58.104673,218.58348 54.495984,214.92308 C 49.506474,209.86208 38.796954,204.46092 33.749184,204.45979 C 25.941434,204.45804 4.7700936,220.12999 4.7700936,225.91138 C 4.7700936,227.31257 5.1108336,228.459 5.5273036,228.459 C 5.9437636,228.459 6.1212136,230.51212 5.9216336,233.02149 C 5.6388836,236.57669 5.9684536,237.89433 7.4144336,238.98969 C 8.4350436,239.76283 9.5757836,240.4097 9.9494036,240.4272 C 10.323024,240.44469 12.575754,237.8715 14.955484,234.709 z M 83.739203,239.49925 C 84.748913,238.86067 83.567273,238.58284 79.960523,238.61078 C 76.643203,238.63647 73.756923,238.02517 72.114503,236.94901 C 68.978513,234.89423 62.882153,232.97106 64.438673,234.52758 C 66.116713,236.20562 77.058253,240.41082 79.770093,240.41995 C 81.145093,240.42458 82.931193,240.01027 83.739203,239.49925 z M 23.868254,229.25014 L 27.270094,226.34495 L 24.110094,227.88112 C 20.893154,229.44496 14.748124,236.08 14.796994,237.93684 C 14.811794,238.49903 16.093464,237.42817 17.645154,235.55716 C 19.196854,233.68615 21.997244,230.84799 23.868254,229.25014 z M 110.51592,219.31317 C 111.15969,218.6694 111.40794,216.89824 111.08249,215.27098 C 110.65768,213.14695 110.99489,212.01511 112.34708,211.02636 C 113.9454,209.85764 114.02621,209.31654 112.95392,206.96311 C 111.978,204.8212 111.97393,203.53727 112.93467,200.88041 C 113.98261,197.98238 113.84366,196.56756 111.93839,190.73585 C 108.85365,181.29404 108.68408,178.74085 110.23092,165.02713 C 110.97959,158.38966 111.88681,148.909 112.24696,143.959 C 112.60711,139.009 113.78094,131.74894 114.85549,127.82553 C 116.26863,122.66578 116.54727,120.00313 115.86253,118.20213 C 114.8365,115.50346 108.38245,110.96251 106.88672,111.88692 C 105.2745,112.88333 104.60404,123.72418 105.72335,130.69803 C 106.61118,136.22969 106.43424,140.61911 104.73575,155.19803 C 103.59768,164.96656 102.17428,174.759 101.57263,176.959 C 100.97098,179.159 100.54668,184.2302 100.62975,188.22834 C 100.71281,192.22647 100.21395,196.95147 99.521163,198.72834 C 97.789643,203.16936 97.967083,204.25226 101.33345,209.78862 C 102.9486,212.44492 105.05098,215.93242 106.00539,217.53862 C 107.89596,220.72031 108.76635,221.06274 110.51592,219.31317 z M 56.115303,211.69263 C 55.003834,210.18914 52.446474,208.16796 50.432274,207.20113 C 48.418074,206.2343 46.770094,205.0592 46.770094,204.5898 C 46.770094,204.1204 45.618244,203.95653 44.210424,204.22565 C 41.763484,204.69342 41.834884,204.80842 45.831784,206.83698 C 48.131354,208.00409 51.645704,210.37655 53.641454,212.10911 C 57.871963,215.78171 58.998033,215.59214 56.115303,211.69263 z M 62.378043,213.709 C 63.108693,212.7465 63.720793,211.15344 63.738293,210.16887 C 63.755783,209.18431 65.569593,206.70931 67.768983,204.66887 C 70.829963,201.82911 72.119933,199.59895 73.268983,195.16021 C 75.511563,186.49714 75.274353,184.64307 71.670003,182.66249 C 69.964953,181.72557 66.747813,179.609 64.520803,177.959 C 62.293793,176.309 59.872283,174.51663 59.139663,173.97595 C 56.478753,172.01219 54.342854,175.98701 53.629234,184.23064 C 52.792764,193.89335 52.446784,195.29994 49.864674,199.53546 C 48.716764,201.41841 47.775884,203.29296 47.773834,203.70113 C 47.771774,204.1093 49.454954,205.2366 51.514234,206.20624 C 53.573514,207.17588 56.348913,209.65442 57.681773,211.71411 C 60.462283,216.01084 60.589633,216.06494 62.378043,213.709 z M 11.254864,210.4746 C 13.394724,208.28318 16.748554,205.98353 18.707804,205.36426 C 24.019274,203.68545 24.677804,202.30797 24.077884,194.13136 C 23.578514,187.32512 23.737064,186.6115 27.183874,180.15128 C 30.529764,173.88021 30.732414,173.03279 29.754554,169.40128 C 28.849414,166.03986 28.293504,165.45968 25.981554,165.46363 C 18.884824,165.47575 6.9264036,172.95403 6.7998936,177.459 C 6.7767236,178.284 6.0855436,180.24794 5.2639336,181.82331 C 3.1608736,185.85575 3.3822936,187.44479 6.5008636,190.69987 L 9.2316236,193.55017 L 7.0008636,199.942 C 4.4911736,207.13302 4.0199836,214.459 6.0671436,214.459 C 6.7805236,214.459 9.1149936,212.66602 11.254864,210.4746 z M 45.717514,199.709 C 46.290294,197.6465 46.761454,194.73519 46.764514,193.23942 C 46.767584,191.74365 47.670094,188.91746 48.770094,186.959 C 51.288234,182.47567 51.282434,181.459 48.738714,181.459 C 47.621444,181.459 46.456774,180.80607 46.150534,180.00803 C 45.237904,177.62975 37.372224,175.06638 34.955634,176.3597 C 31.422464,178.25059 27.770094,187.83092 27.770094,195.20765 L 27.770094,201.71462 L 31.520094,201.1586 C 33.601224,200.85003 36.827704,201.18508 38.770094,201.91148 C 44.100604,203.90494 44.595844,203.74794 45.717514,199.709 z M 50.977314,193.04932 C 51.514124,191.34965 52.113004,187.934 52.308164,185.459 C 52.503324,182.984 52.411044,181.84024 52.103104,182.91732 C 51.795164,183.99439 50.962504,185.79439 50.252744,186.91732 C 49.542994,188.04024 48.661174,190.984 48.293144,193.459 C 47.925114,195.934 47.415424,198.859 47.160514,199.959 C 46.504014,202.79188 49.764554,196.88921 50.977314,193.04932 z M 90.270093,197.459 C 88.689293,195.809 87.058803,194.459 86.646773,194.459 C 85.618293,194.459 91.038813,200.19237 92.207183,200.34033 C 92.722583,200.4056 91.850893,199.109 90.270093,197.459 z M 26.496924,194.72778 C 25.866604,189.13566 29.661634,178.34881 33.108834,175.93429 C 35.799104,174.04995 39.842914,174.04684 42.328964,175.9272 C 45.243414,178.13157 46.629384,177.69178 43.909314,175.42573 C 42.610874,174.34403 40.078474,173.459 38.281754,173.459 C 34.394394,173.459 32.876044,171.88672 32.090864,167.04823 C 31.770514,165.07415 31.069144,163.459 30.532264,163.459 C 29.995384,163.459 29.850504,164.22615 30.210304,165.16379 C 30.570104,166.10142 31.116784,168.70926 31.425144,170.95899 C 31.892174,174.36631 31.476104,175.85312 28.933714,179.86205 C 25.229814,185.70249 24.363034,189.25883 25.231654,195.05123 C 26.118994,200.96843 27.170044,200.69974 26.496924,194.72778 z M 52.514694,178.72519 C 52.739764,178.04999 52.084234,177.8256 50.838444,178.15138 C 49.713224,178.44563 49.053764,179.10897 49.372984,179.62548 C 50.087354,180.78135 52.013274,180.22945 52.514694,178.72519 z M 67.858573,177.05319 C 66.615493,175.72999 64.624553,174.40684 63.434263,174.11286 C 61.732873,173.69265 62.010443,174.2071 64.732323,176.51868 C 68.900713,180.05872 71.023013,180.42158 67.858573,177.05319 z M 75.455533,171.59877 C 75.696933,165.53706 75.349903,163.61188 73.304393,159.66504 C 70.906113,155.03754 70.870093,154.59186 71.145783,132.959 C 71.368613,115.47426 71.766323,110.03542 73.083573,106.459 C 73.995153,103.984 74.747533,100.03922 74.755543,97.692817 C 74.768813,93.802247 74.464283,93.280807 71.296583,91.770235 C 68.594453,90.481683 67.294203,90.354793 65.441623,91.198885 C 62.379613,92.594037 61.234943,98.523457 63.268483,102.45589 C 66.511463,108.72713 67.705423,127.21559 65.743683,140.78436 C 65.159583,144.82437 63.536193,149.92546 61.765633,153.28436 C 59.619723,157.35533 58.773773,160.34976 58.772233,163.88026 C 58.770083,168.82948 60.698593,172.459 63.330463,172.459 C 64.018183,172.459 66.485963,174.05066 68.814403,175.99602 C 71.142853,177.94139 73.524893,179.37407 74.107823,179.17976 C 74.690753,178.98545 75.297223,175.574 75.455533,171.59877 z M 50.293194,176.69369 C 52.655504,174.99731 54.770094,170.27004 54.770094,166.68535 C 54.770094,164.10458 53.677514,161.02693 51.445374,157.3201 L 48.120654,151.79886 L 48.841304,130.93951 C 49.237664,119.46687 49.340714,109.50364 49.070314,108.79899 C 48.799914,108.09433 49.495764,106.35191 50.616654,104.92694 C 52.051254,103.10314 52.643454,100.89464 52.616904,97.467397 C 52.581954,92.954737 52.294324,92.401287 48.683544,89.899023 C 45.477194,87.677013 44.520914,87.420913 43.278994,88.451613 C 42.449104,89.140363 41.770094,90.319973 41.770094,91.072965 C 41.770094,91.825965 40.870094,93.004117 39.770094,93.691077 C 37.737794,94.960267 36.975704,98.458997 38.731554,98.458997 C 40.970444,98.458997 42.140814,107.55818 42.204394,125.459 C 42.275874,145.58705 41.390094,150.31912 36.088534,158.13141 C 33.336514,162.18673 32.721924,168.4911 34.830874,171.03223 C 35.482134,171.81695 37.509794,172.459 39.336774,172.459 C 41.444234,172.459 43.684264,173.36136 45.464334,174.9274 C 48.568204,177.65806 48.821314,177.75064 50.293194,176.69369 z M 18.495784,164.27169 C 19.205964,163.6823 21.353094,163.4542 23.267184,163.76481 C 26.080674,164.22138 27.036864,163.91621 28.258724,162.17178 C 29.089974,160.98499 29.770094,160.42912 29.770094,160.93649 C 29.770094,163.56139 31.873824,159.22709 32.671074,154.95964 C 33.525694,150.38506 33.322184,149.48268 29.748494,142.00084 C 27.635854,137.57783 25.602674,132.7215 25.230304,131.209 C 24.857944,129.6965 24.152064,128.459 23.661684,128.459 C 23.171314,128.459 22.770094,125.7069 22.770094,122.34321 C 22.770094,115.79641 25.490464,106.459 27.397824,106.459 C 30.224824,106.459 30.552874,99.723857 27.890724,96.339477 C 26.857064,95.025407 25.843094,93.076577 25.637454,92.008765 C 25.013934,88.771073 18.999284,85.992333 12.614754,85.992333 C 6.2064236,85.992333 2.7700936,88.133863 2.7700936,92.127555 C 2.7700936,93.424777 2.2291936,95.352257 1.5680836,96.410857 C 0.1779536,98.636817 1.1885036,101.09091 5.6458036,106.31337 C 9.5613636,110.90111 11.707394,124.96122 10.883664,140.63024 C 10.357514,150.63859 9.9452536,152.74012 7.9901536,155.38024 C 6.7361936,157.07356 6.1736936,158.459 6.7401536,158.459 C 7.3066236,158.459 7.7700936,159.35519 7.7700936,160.45053 C 7.7700936,161.54587 8.6700936,163.00411 9.7700936,163.69107 C 10.870094,164.37803 11.770094,165.49571 11.770094,166.1748 C 11.770094,167.52344 16.030104,166.31802 18.495784,164.27169 z M 116.77009,110.78774 C 116.77009,109.86855 116.0023,108.26808 115.06388,107.23114 C 112.6201,104.53079 112.15633,94.264857 114.17156,87.478833 C 115.90134,81.654025 115.66407,80.944505 111.65563,79.955369 C 107.92359,79.03444 107.38929,81.360576 109.32962,90.081973 C 111.03681,97.755447 110.51105,101.83055 107.11611,107.23873 C 105.76053,109.39818 105.80829,109.48752 108.02131,108.93208 C 109.63919,108.52602 110.92992,108.97813 112.21883,110.40236 C 114.46658,112.88609 116.77009,113.08114 116.77009,110.78774 z M 99.030493,96.708997 C 99.254373,95.746497 98.551003,93.456587 97.467443,91.620295 C 95.722693,88.663503 95.591603,87.348043 96.321453,80.120298 C 96.774723,75.631582 97.173593,69.491148 97.207833,66.474887 C 97.267963,61.178122 97.150523,60.932093 93.770093,59.272919 C 91.845093,58.328097 89.932593,57.533446 89.520093,57.507029 C 88.443693,57.438093 88.595303,62.86907 89.754933,65.919122 C 90.296593,67.343801 91.213793,71.476718 91.793163,75.103382 C 92.901123,82.038951 91.998723,87.257353 89.119553,90.564383 C 86.925403,93.084587 88.419543,95.479107 91.768333,94.809357 C 93.955963,94.371827 94.837653,94.716727 95.713063,96.352437 C 97.084883,98.915707 98.482283,99.065897 99.030493,96.708997 z M 76.202703,88.208993 C 75.816503,86.971493 75.113413,85.708813 74.640263,85.403043 C 72.544653,84.048733 72.526733,72.858419 74.606993,64.63211 C 75.751063,60.107937 76.432643,55.743188 76.121613,54.932669 C 75.809003,54.118019 74.298943,53.458997 72.744893,53.458997 C 71.198723,53.458997 69.221863,53.185852 68.351883,52.852008 C 66.291483,52.061358 66.257063,54.986901 68.270093,59.804754 C 71.095543,66.567002 69.309953,78.960376 64.658193,84.874129 C 62.204713,87.993223 62.786363,89.228223 66.015863,87.756833 C 68.365243,86.686443 72.075573,87.526223 73.226783,89.388923 C 73.590523,89.977463 74.566893,90.458993 75.396493,90.458993 C 76.502113,90.458993 76.717383,89.858223 76.202703,88.208993 z M 53.103444,79.251339 C 49.221744,73.181989 48.634224,63.452412 51.770264,57.173112 C 53.545344,53.618844 53.765844,52.319566 52.876064,50.657005 C 52.130604,49.264093 52.100194,48.37302 52.783704,47.950587 C 54.637094,46.805128 52.706914,45.458997 49.211074,45.458997 C 47.318534,45.458997 45.770094,45.008997 45.770094,44.458997 C 45.770094,43.908997 44.826664,43.458997 43.673584,43.458997 C 41.771134,43.458997 41.621924,43.898697 42.061604,48.208997 C 42.328104,50.821497 43.340614,55.528612 44.311624,58.669253 C 45.973574,64.044696 45.979934,64.773231 44.420014,71.094471 C 43.508614,74.7877 42.089544,78.553518 41.266514,79.462956 C 40.443484,80.372393 39.770094,82.569062 39.770094,84.344442 C 39.770094,87.480413 39.833434,87.528043 41.992604,86.015703 C 44.920544,83.964888 46.437024,84.051846 49.479444,86.445013 L 52.004254,88.431023 L 53.926444,85.987353 C 55.841833,83.552337 55.838913,83.528477 53.103444,79.251339 z M 22.270094,85.458993 C 21.930174,84.908997 20.666114,84.490625 19.461074,84.529282 C 17.348714,84.597046 17.341854,84.630406 19.270094,85.458993 C 22.022574,86.641783 23.001094,86.641783 22.270094,85.458993 z M 26.218234,85.542913 C 26.529624,85.039063 26.353724,83.494054 25.827334,82.109551 C 25.152984,80.335869 25.213804,79.47776 26.033244,79.204614 C 26.913274,78.91127 26.901094,77.538395 25.983154,73.561686 C 24.031344,65.10597 24.454734,62.152812 28.802324,53.897802 C 33.226644,45.497113 33.013904,43.458997 27.712744,43.458997 C 24.184884,43.458997 19.487374,41.725461 20.142564,40.665348 C 20.413614,40.226781 19.508954,39.888438 18.132204,39.913475 C 14.586384,39.977958 13.458374,42.635596 14.372144,48.772322 C 15.389624,55.605557 15.002044,61.767999 13.236084,66.835663 C 12.445794,69.103497 11.792654,71.761673 11.784644,72.742722 C 11.776644,73.723771 10.195094,75.45572 8.2700936,76.591498 C 6.3197336,77.742241 4.7700936,79.457974 4.7700936,80.466643 C 4.7700936,81.99001 5.6017136,82.268718 10.020094,82.226114 C 17.234324,82.156551 22.081514,83.153089 23.264984,84.949141 C 24.399224,86.670483 25.397324,86.871163 26.218234,85.542913 z M 114.92284,74.05773 C 115.16129,72.06547 114.80012,71.077473 113.77009,70.90435 C 112.94509,70.765688 111.59509,70.378783 110.77009,70.044562 C 109.63432,69.584444 109.27009,70.168038 109.27009,72.447942 C 109.27009,74.608913 109.74749,75.458997 110.96107,75.458997 C 111.89111,75.458997 112.94867,75.938936 113.31121,76.525528 C 114.19984,77.963361 114.51272,77.484257 114.92284,74.05773 z M 115.36049,62.666968 C 115.24207,60.031351 114.8047,57.324011 114.38854,56.650656 C 113.17714,54.690574 111.70642,56.357128 112.35767,58.951936 C 112.77561,60.617117 112.3446,61.842886 110.90892,63.072156 L 108.86524,64.822008 L 111.06767,66.042454 C 114.99163,68.21687 115.58875,67.747352 115.36049,62.666968 z M 92.270093,56.458997 C 91.930173,55.908997 91.116113,55.465888 90.461073,55.47431 C 89.745463,55.483511 89.868803,55.876537 90.770093,56.458997 C 92.691213,57.700522 93.037393,57.700522 92.270093,56.458997 z M 95.458353,53.717528 C 95.338173,51.967492 94.402593,50.514452 92.871313,49.699642 C 89.941443,48.140627 88.998873,48.8131 90.877593,51.122062 C 92.104103,52.629456 92.061493,52.75528 90.520093,52.177613 C 89.330923,51.731948 88.770093,52.011332 88.770093,53.049399 C 88.770093,53.889596 89.153803,54.339888 89.622773,54.050047 C 90.091743,53.760206 91.329243,54.169337 92.372773,54.959227 C 95.107163,57.029005 95.670203,56.802427 95.458353,53.717528 z M 72.881383,49.168377 C 74.043323,48.283553 74.261463,47.316343 73.663613,45.70018 C 72.910363,43.663973 71.580783,43.224668 67.020093,43.505117 C 65.876023,43.575469 66.817003,48.857933 68.122483,49.693684 C 69.737583,50.727654 71.019603,50.58614 72.881383,49.168377 z M 95.242653,44.334077 C 94.789703,42.271812 94.977923,40.948587 95.796133,40.442905 C 96.762543,39.845631 96.710133,39.211482 95.558493,37.567288 C 94.109643,35.498758 94.047733,35.494729 92.360423,37.359183 C 91.230803,38.607394 91.006593,39.487128 91.707653,39.920408 C 92.463283,40.387412 92.458643,41.172433 91.691773,42.605332 C 91.095733,43.719059 90.757013,44.704249 90.939073,44.794643 C 91.121133,44.885038 92.170093,45.495034 93.270093,46.15019 C 96.038533,47.799063 96.009553,47.825744 95.242653,44.334077 z M 48.770094,42.958997 C 48.085404,42.133997 46.792804,41.473309 45.897654,41.4908 C 44.530334,41.517519 44.580464,41.757359 46.211224,42.9908 C 48.737764,44.901779 50.365664,44.881546 48.770094,42.958997 z M 52.378484,41.037138 C 52.678574,40.255115 52.438234,38.707425 51.844394,37.597826 C 51.130514,36.263925 51.104424,35.370406 51.767394,34.960668 C 53.527494,33.872864 52.848054,31.308158 50.260564,29.272842 C 48.880324,28.187145 48.006884,26.884881 48.319584,26.378922 C 49.359034,24.697049 47.876294,25.428632 45.860674,27.592141 C 44.473054,29.081586 44.039174,30.55442 44.422884,32.472936 C 44.766694,34.191987 44.329954,36.201103 43.256244,37.839792 L 41.540074,40.458997 L 45.096064,40.458997 C 47.051864,40.458997 48.930174,40.908997 49.270094,41.458997 C 50.162214,42.90247 51.745124,42.687642 52.378484,41.037138 z M 74.094753,40.801006 C 74.456643,40.439111 74.240483,39.525785 73.614393,38.771392 C 72.836363,37.833921 72.783023,36.696964 73.445873,35.179383 C 74.104643,33.671148 74.045953,32.245191 73.262873,30.733452 L 72.110053,28.507907 L 70.046843,31.298546 C 68.549563,33.323723 68.243833,34.55413 68.932223,35.784231 C 69.624633,37.021498 69.460763,37.640466 68.325453,38.076125 C 65.912313,39.002137 66.486193,40.283145 69.520093,40.742743 C 71.032593,40.971867 72.532593,41.226757 72.853423,41.309165 C 73.174263,41.391573 73.732853,41.162901 74.094753,40.801006 z M 33.520094,38.515435 C 36.156024,36.316456 36.326694,35.165823 34.270094,33.458997 C 32.091704,31.651094 32.382844,26.119428 34.770094,23.958997 C 35.870094,22.963511 36.770094,21.34386 36.770094,20.359773 C 36.770094,17.850926 32.370054,12.97017 30.917574,13.867851 C 30.268514,14.26899 30.018594,15.052062 30.362194,15.608012 C 30.705784,16.163963 30.038124,17.283385 28.878504,18.095618 C 27.718874,18.907851 26.770094,20.34676 26.770094,21.293195 C 26.770094,24.478368 23.827034,27.458997 20.682004,27.458997 C 17.529224,27.458997 17.283004,27.810401 16.302694,33.708997 C 15.730234,37.15353 15.870514,37.458997 18.024784,37.458997 C 19.314704,37.458997 20.797594,37.874371 21.320094,38.38205 C 22.167364,39.205288 25.444424,39.939754 29.770094,40.275896 C 30.595094,40.340005 32.282594,39.547798 33.520094,38.515435 z M 53.086844,24.292768 C 52.714184,22.429463 52.934104,20.975669 53.656124,20.529434 C 54.389514,20.076175 54.538384,19.03194 54.051364,17.756976 C 53.431164,16.133314 52.809664,15.883851 51.036744,16.546937 C 49.653694,17.064211 49.014964,17.933532 49.359074,18.83027 C 49.701324,19.722179 49.118844,20.530921 47.842414,20.936043 C 45.015354,21.833319 45.239104,23.108912 48.361014,23.892461 C 49.868574,24.270835 50.750794,25.066917 50.470884,25.796341 C 50.200554,26.500799 50.801164,27.111056 51.841964,27.189457 C 53.388184,27.305931 53.593794,26.827495 53.086844,24.292768 z "
     style="fill:#000000"
     id="path2384" />
  <path
     d="M 65.842623,343.2616 C 63.142653,343.11537 62.224743,342.72705 60.071833,340.82035 C 59.144663,339.9992 58.305843,339.38267 57.771383,339.12954 C 56.964733,338.74747 56.885833,338.7356 55.847793,338.84002 C 54.259074,338.99985 52.866414,338.95882 52.097494,338.72954 C 49.906064,338.07607 48.057144,336.59306 47.866294,335.33569 C 47.648334,333.8997 46.431744,332.22997 42.295624,327.69013 C 39.719094,324.86208 38.023994,322.48073 37.497774,320.94986 C 37.155924,319.95535 37.184564,318.56876 37.562944,317.79438 C 37.905464,317.09335 38.980874,315.9981 40.270224,315.03709 C 41.828644,313.87553 42.566974,312.83491 42.776004,311.50538 C 42.844814,311.0676 43.009084,310.56017 43.141004,310.37776 C 44.172764,308.95103 47.804184,308.38282 50.718734,309.19206 C 52.474814,309.67964 53.507154,310.40376 53.733044,311.30639 C 54.178994,313.08848 61.920483,315.13798 64.668813,314.20155 C 65.434303,313.94072 66.238293,313.30017 66.862343,312.45388 C 67.919753,311.01994 68.712353,309.28822 70.818173,303.81099 C 72.801873,298.65144 75.969413,293.67674 79.279643,290.52205 C 81.678193,288.23621 83.299333,287.44034 84.388713,288.01382 C 84.914493,288.29062 85.905703,289.36431 86.514253,290.31626 C 87.246533,291.46175 87.575883,292.51561 87.804403,294.44448 C 88.292053,298.56067 90.062463,303.47934 91.056393,303.47934 C 91.473373,303.47934 92.901773,304.55565 93.640663,305.42662 C 95.844263,308.0241 96.445213,309.85406 96.098383,312.91073 C 95.750873,315.97329 94.943493,318.70079 93.939253,320.20463 L 93.398993,321.01371 L 93.473663,322.29566 C 93.514753,323.00073 93.730433,324.42268 93.952983,325.45553 C 94.619683,328.54969 94.736763,330.6689 94.347673,332.59862 C 93.324433,337.67317 89.052913,340.71277 81.013423,342.08719 C 78.518243,342.51376 71.414083,343.19465 68.230543,343.31235 C 67.756273,343.32988 66.681713,343.30705 65.842623,343.2616 L 65.842623,343.2616 z "
     style="opacity:0.54035088;fill:#9999cc;fill-opacity:1;stroke:#ff0000;stroke-width:0.13266186;stroke-opacity:1"
     id="path2468" />
  <path
     d="M 37.585654,308.1238 C 35.842964,307.89312 35.316024,307.71673 34.715224,307.16293 C 32.764484,305.3648 30.453534,300.66947 29.351394,296.2648 C 28.700784,293.66471 28.221934,292.58804 27.632994,292.40112 C 26.740604,292.11788 25.575884,288.15956 24.376104,281.33247 C 22.974554,273.35726 22.402854,271.03463 20.765984,266.66567 C 19.311804,262.78433 18.844904,260.12749 18.842634,255.72107 C 18.841864,254.22531 18.885764,252.68602 18.940194,252.30043 C 19.259284,250.03986 22.341154,248.27699 27.607764,247.3425 C 28.987144,247.09774 29.789564,247.0426 32.013854,247.03975 C 35.284224,247.03554 36.211104,247.19124 39.028014,248.21797 C 41.547854,249.13643 42.726484,249.39403 44.120374,249.33096 C 45.411624,249.27253 46.321014,248.90661 47.315194,248.04542 C 48.685164,246.8587 49.660374,246.63824 51.581474,247.08092 C 53.119724,247.43539 54.904494,247.6871 58.280903,248.02578 C 62.496323,248.44862 65.395513,249.1119 66.646293,249.93962 C 67.898353,250.7682 68.921193,253.36024 69.484783,257.13284 C 69.828093,259.43087 70.080003,263.15993 70.218423,267.99229 C 70.423823,275.16289 70.754473,280.8137 71.161573,284.11071 C 71.413723,286.15289 71.518443,288.65983 71.391533,289.61617 C 71.316333,290.1827 71.090973,290.92287 70.813563,291.51436 C 70.060023,293.12105 68.802633,294.19443 65.535703,296.01985 C 64.819673,296.41994 63.764893,297.08296 63.191743,297.49324 C 60.387493,299.50062 56.230223,303.82235 54.151164,306.89146 C 53.794274,307.4183 53.376894,307.91644 53.223664,307.99846 C 52.836144,308.20585 52.129854,308.08847 51.117164,307.64836 C 50.325834,307.30445 50.123834,307.27402 48.662914,307.27861 C 47.534074,307.28216 46.665764,307.36998 45.678024,307.5805 C 42.774894,308.19928 39.710274,308.40503 37.585654,308.1238 L 37.585654,308.1238 z "
     style="opacity:0.54035088;fill:#9999cc;fill-opacity:1;stroke:#ff0000;stroke-width:0.13266186;stroke-opacity:1"
     id="path2470" />
  <path
     d="M 59.669133,312.50958 C 57.104373,311.90612 56.659983,311.76704 55.911213,311.33347 C 54.369644,310.44084 54.503754,309.16734 56.401973,306.67299 C 59.010623,303.24508 62.927623,299.728 68.380303,295.91761 C 72.178183,293.26361 73.206173,292.1381 73.624523,290.1759 C 73.934073,288.724 73.680353,286.21166 72.870983,282.71412 C 71.686903,277.59728 71.210873,274.09058 71.315803,271.25787 C 71.370763,269.77431 71.796523,266.44308 72.028243,265.68351 C 72.059463,265.5811 72.537663,266.23753 73.090883,267.14224 C 74.220343,268.98932 75.177673,270.25037 75.822623,270.74063 C 76.423633,271.1975 77.054163,271.50783 77.381413,271.50783 C 77.768093,271.50783 79.028433,272.16697 79.971113,272.86222 C 83.359553,275.36127 84.954213,278.24355 84.781233,281.55628 C 84.656563,283.94392 84.054013,284.97471 81.553033,287.07878 C 74.119323,293.33272 72.666153,295.28748 69.212973,303.67833 C 66.412883,310.48217 64.510423,313.03707 62.260753,313.01474 C 62.005383,313.01221 60.839143,312.78488 59.669113,312.50959 L 59.669133,312.50958 z "
     style="opacity:0.54035088;fill:#9999cc;fill-opacity:1;stroke:#ff0000;stroke-width:0.13266186;stroke-opacity:1"
     id="path2472" />
  <path
     d="M 91.276193,301.05826 C 90.818323,300.1372 90.586123,299.41433 89.396923,295.20772 C 88.305563,291.3472 87.735843,289.74231 86.943953,288.29769 C 86.236403,287.00692 86.035463,285.85511 85.807033,281.78097 C 85.700933,279.88839 85.529113,277.95188 85.425243,277.47761 C 84.730283,274.30425 83.085403,272.53795 79.243613,270.83967 C 78.431743,270.48078 77.504233,269.99807 77.182443,269.76699 C 75.731903,268.72529 74.125473,266.15042 73.426703,263.74711 C 73.030723,262.38521 72.891473,261.45789 72.749333,259.23661 C 72.599543,256.89543 72.234173,254.88721 71.613023,252.99101 C 70.393473,249.26802 69.176303,247.41112 67.339343,246.47107 C 65.981263,245.77607 65.062693,245.54278 63.049393,245.38152 C 59.658923,245.10995 57.998363,244.13717 57.397613,242.07066 C 56.882893,240.30009 57.764573,237.0943 59.031863,236.1285 C 59.491203,235.77846 59.599683,235.75578 60.791563,235.76064 C 61.743473,235.76453 62.311093,235.84401 63.056733,236.07781 C 64.351003,236.48365 66.737123,237.43617 69.225503,238.54035 C 75.812043,241.46303 76.710393,241.60934 83.022343,240.78728 C 87.693403,240.17894 90.808863,240.08085 91.533353,240.51934 C 92.076883,240.84828 92.418543,241.48923 92.706603,242.7202 C 93.090803,244.36208 93.695473,246.14647 94.414913,247.76136 L 95.094573,249.28697 L 95.092303,250.87891 C 95.089753,252.66781 94.950423,253.32362 93.352663,259.06709 L 92.477213,262.21412 L 95.651323,266.82781 C 97.397073,269.36534 98.868663,271.51388 98.921523,271.60235 C 98.974353,271.69082 98.452873,273.5116 97.762653,275.64854 C 96.008843,281.07836 94.721773,285.63329 93.984543,289.0192 C 93.586393,290.84789 92.952503,294.88888 92.715163,297.11157 C 92.271683,301.26461 92.174553,301.75473 91.795043,301.75473 C 91.700093,301.75473 91.466613,301.44132 91.276193,301.05826 z "
     style="opacity:0.54035088;fill:#9999cc;fill-opacity:1;stroke:#ff0000;stroke-width:0.13266186;stroke-opacity:1"
     id="path2474" />
  <path
     d="M 17.066434,249.46007 C 16.754694,249.3793 16.507474,249.14432 16.113454,248.55426 C 15.328484,247.37875 15.004874,246.42675 14.931324,245.0766 C 14.876794,244.07571 14.917614,243.75889 15.230274,242.75608 C 15.790554,240.95907 16.539324,239.59731 18.131304,237.48006 C 23.137564,230.82205 28.939674,227.02561 34.594284,226.70801 C 36.842214,226.58175 39.248214,227.02828 40.953144,227.88815 C 44.262784,229.55734 50.060784,234.46578 52.102344,237.32677 C 52.845164,238.36774 53.444484,239.65661 53.701954,240.7668 C 54.032284,242.19111 54.329704,245.02719 54.200584,245.52142 C 54.088944,245.9487 54.054844,245.96993 53.495684,245.96033 C 53.172504,245.95478 52.380144,245.8822 51.734864,245.79905 C 48.870644,245.42995 43.917964,246.52085 44.271784,247.44289 C 44.443644,247.89078 43.748494,247.81875 41.233854,247.1281 C 37.852834,246.1995 32.092164,245.6602 28.165254,245.90465 C 25.226774,246.08758 23.903864,246.49342 20.398884,248.28722 C 17.956824,249.53703 17.705194,249.6256 17.066434,249.46008 L 17.066434,249.46007 z "
     style="opacity:0.54035088;fill:#9999cc;fill-opacity:1;stroke:#ff0000;stroke-width:0.13266186;stroke-opacity:1"
     id="path2476" />
  <path
     d="M 8.3150636,239.55511 C 6.9348836,238.64245 6.6596936,238.3656 6.2507636,237.47841 C 5.9555736,236.83795 5.9469936,236.71473 5.9830536,233.63287 C 6.0314436,229.49685 5.9729036,228.89544 5.4720236,228.38305 C 4.9785536,227.87824 4.8845036,227.51876 4.8845036,226.13747 C 4.8845036,224.77741 5.1643236,224.08682 6.4325536,222.31702 C 7.3499436,221.03679 10.855624,217.45501 12.722044,215.89098 C 19.228924,210.43833 27.073374,205.86777 31.799074,204.77576 C 32.878864,204.52624 33.318454,204.48901 34.381234,204.55707 C 38.514074,204.82176 45.974144,208.24277 51.573294,212.44097 C 53.106014,213.59021 56.082703,216.51153 57.013233,217.77977 C 58.441753,219.72674 58.723783,220.76437 58.653813,223.81589 C 58.607913,225.81812 58.583573,225.98566 58.224573,226.77061 C 57.749643,227.80902 56.839393,228.67948 54.494264,230.33784 C 53.548904,231.00635 52.737854,231.57348 52.691914,231.59813 C 52.645974,231.62277 51.750504,230.85773 50.701984,229.89804 C 44.801994,224.49788 43.103884,223.68137 37.451664,223.52684 C 32.603534,223.3943 29.430064,223.96109 25.778854,225.61165 C 21.538164,227.5287 18.555364,230.09121 14.403514,235.38418 C 13.384834,236.68285 12.032644,238.32744 11.398644,239.03884 C 9.9812936,240.62921 9.9478636,240.63481 8.3150636,239.55511 L 8.3150636,239.55511 z "
     style="opacity:0.54035088;fill:#9999cc;fill-opacity:1;stroke:#ff0000;stroke-width:0.13266186;stroke-opacity:1"
     id="path2478" />
  <path
     d="M 78.113853,237.12932 C 75.606793,236.85284 73.313893,236.04028 71.710943,234.86026 C 70.696993,234.11382 69.242203,233.49944 67.505753,233.08432 C 65.962883,232.71548 64.038463,232.20677 62.758243,231.82936 L 61.862773,231.56537 L 61.869153,225.56804 L 61.875523,219.57071 L 62.615053,219.10639 C 65.899053,217.04455 75.044853,203.5371 77.840313,196.62021 C 78.321003,195.4308 78.843493,193.66083 78.843493,193.22182 C 78.843493,192.88505 79.209003,192.57402 79.604753,192.57402 C 80.775193,192.57402 84.793973,195.63817 88.909903,199.66878 C 93.634323,204.29529 96.705333,208.632 97.971113,212.4645 C 98.335573,213.56801 98.391283,213.92398 98.398113,215.19287 C 98.404983,216.46961 98.366633,216.73201 98.091533,217.2906 C 97.474443,218.54366 96.510053,219.23565 94.740363,219.6953 C 93.277973,220.07513 92.954883,220.30047 92.441333,221.29868 C 92.054633,222.05034 92.043343,222.1252 92.043343,223.93904 C 92.043343,225.63458 92.077183,225.90433 92.412223,226.87977 C 92.615123,227.47044 93.087523,228.4853 93.462033,229.13502 C 94.473843,230.8904 94.495893,230.93991 94.496763,231.45922 C 94.497693,232.00102 94.271083,232.33524 93.244573,233.30607 C 91.982113,234.50006 90.940803,235.14487 89.124783,235.85719 C 86.163573,237.01871 81.742453,237.52949 78.113853,237.12932 L 78.113853,237.12932 z "
     style="opacity:0.54035088;fill:#9999cc;fill-opacity:1;stroke:#ff0000;stroke-width:0.13266186;stroke-opacity:1"
     id="path2480" />
  <path
     d="M 5.7072136,214.32556 C 4.6973236,213.8388 4.5496036,210.57 5.3435136,206.2774 C 5.8319536,203.63649 6.4254836,201.61947 8.2131436,196.52548 L 9.2478936,193.57694 L 8.9910036,193.29743 C 8.8497236,193.1437 8.1052836,192.36096 7.3367136,191.55801 C 5.1263036,189.24877 4.3434936,188.15336 4.0299036,186.93072 C 3.7096236,185.68197 4.0142736,184.47563 5.3858036,181.56176 C 6.2803136,179.66132 6.5802936,178.79862 6.8048636,177.48075 C 6.9906936,176.39024 7.2742736,175.73291 7.9607836,174.80135 C 10.521344,171.32683 17.019874,167.35177 22.278124,166.04364 C 23.906764,165.63847 24.648504,165.53572 26.000844,165.52795 C 27.185224,165.52115 27.245274,165.53044 27.774694,165.80233 C 28.655084,166.25448 28.998334,166.86735 29.666084,169.17935 C 30.725364,172.84695 30.507484,173.79648 27.136844,180.20157 C 24.827184,184.59052 24.264854,185.9862 23.971874,188.05686 C 23.835934,189.01761 23.891564,191.73737 24.123684,195.48006 C 24.418174,200.22847 24.111334,201.94135 22.717694,203.32864 C 22.023794,204.01937 21.125994,204.49802 19.381124,205.1075 C 16.399714,206.14888 14.137534,207.68593 10.614164,211.06423 C 9.1134236,212.50317 7.5158736,213.79239 6.7743736,214.16293 C 6.1751836,214.46234 6.0352336,214.48367 5.7072136,214.32556 L 5.7072136,214.32556 z "
     style="opacity:0.54035088;fill:#9999cc;fill-opacity:1;stroke:#ff0000;stroke-width:0.0938061;stroke-opacity:1"
     id="path2482" />
  <path
     d="M 41.911414,202.94361 C 41.636904,202.86974 40.539374,202.5145 39.472454,202.15419 C 36.906974,201.2878 35.856534,201.09992 33.498934,201.08579 C 31.910764,201.07626 31.509634,201.10822 29.816464,201.37913 C 28.771384,201.54635 27.895464,201.68317 27.869994,201.68317 C 27.777694,201.68317 27.826284,193.71571 27.924674,192.71752 C 28.231504,189.60465 29.194624,185.77274 30.398524,182.87504 C 31.739694,179.64692 33.549754,177.09744 34.999834,176.39403 C 35.549614,176.12734 35.596414,176.12115 37.016664,176.12733 C 38.167264,176.13234 38.651424,176.17636 39.336954,176.3383 C 40.718014,176.66455 41.956064,177.08839 43.075764,177.61828 C 44.762564,178.41655 45.606704,179.07897 46.145924,180.02752 C 46.282144,180.26715 46.526704,180.57521 46.689384,180.7121 C 47.330574,181.25162 47.663724,181.34828 49.672294,181.57749 C 49.960704,181.6104 50.166934,181.70545 50.352384,181.8909 C 50.930884,182.4694 50.623684,183.46189 48.813704,186.8618 C 47.538384,189.25741 46.921134,191.25207 46.723684,193.61584 C 46.516514,196.0959 46.194184,197.92692 45.600334,199.99726 C 45.076814,201.82236 44.643654,202.64091 44.033334,202.95846 C 43.706464,203.12853 42.569014,203.12056 41.911414,202.9436 L 41.911414,202.94361 z "
     style="opacity:0.54035088;fill:#9999cc;fill-opacity:1;stroke:#ff0000;stroke-width:0.0938061;stroke-opacity:1"
     id="path2486" />
  <path
     d="M 60.419253,215.19624 C 60.055573,215.04875 59.424743,214.28936 58.389023,212.75229 C 57.096833,210.83457 56.597203,210.21509 55.430724,209.08428 C 54.190144,207.88165 52.972134,206.98662 51.509714,206.20302 C 48.942714,204.82757 47.803724,204.04862 47.804824,203.66927 C 47.805664,203.37776 48.610574,201.73907 49.540644,200.13537 C 50.883904,197.81923 51.328484,196.98687 51.684514,196.12162 C 52.546754,194.02612 52.945714,191.79932 53.477984,186.11135 C 53.888824,181.72113 54.102024,180.23894 54.618164,178.18474 C 55.222404,175.77988 56.234623,174.0143 57.224943,173.63778 C 57.643673,173.47858 58.248413,173.52583 58.693423,173.75252 C 58.921453,173.86867 60.479913,174.98078 62.156703,176.22387 C 66.475783,179.42585 68.653353,180.90363 71.754463,182.73726 C 73.135693,183.55396 73.791713,184.16344 74.206113,185.01498 C 75.001323,186.64905 74.842073,188.69289 73.495723,194.13178 C 72.517953,198.08169 71.639113,200.15077 70.089073,202.1522 C 69.829343,202.48755 68.708703,203.69161 67.598743,204.82787 C 64.943403,207.54614 63.853153,209.07843 63.707793,210.29642 C 63.539783,211.70427 62.885903,213.10471 61.771133,214.44425 C 61.389383,214.90298 60.820953,215.3208 60.635363,215.27911 C 60.620813,215.27584 60.523563,215.23855 60.419253,215.19625 L 60.419253,215.19624 z "
     style="opacity:0.54035088;fill:#9999cc;fill-opacity:1;stroke:#ff0000;stroke-width:0.0938061;stroke-opacity:1"
     id="path2488" />
  <path
     d="M 11.952334,166.49133 C 11.837674,166.37667 11.743864,166.16356 11.743864,166.01775 C 11.743864,165.57505 10.987664,164.62024 10.035164,163.86026 C 8.4747136,162.61519 7.9589536,161.81464 7.7753736,160.3526 C 7.6407736,159.28062 7.3419436,158.64213 6.8953536,158.47234 C 6.7164236,158.40431 6.5713636,158.24273 6.5729636,158.11322 C 6.5778436,157.71905 7.0336636,156.83967 7.9041536,155.54507 C 9.8247636,152.68872 10.192894,151.17293 10.688394,144.08095 C 11.596094,131.08939 10.758334,119.30549 8.4027136,111.93051 C 7.4455636,108.93388 6.6334936,107.44835 4.6569736,105.07836 C 2.1295236,102.04776 0.8291636,99.438297 1.0644636,97.869177 C 1.1144436,97.535877 1.3820236,96.812317 1.6590836,96.261267 C 2.3488936,94.889307 2.5719436,94.078587 2.7895036,92.152535 C 2.9397536,90.822425 3.0541036,90.343983 3.3799836,89.682023 C 4.3030736,87.806953 6.2555136,86.727713 9.6212736,86.232053 C 11.284714,85.987083 14.462154,86.024493 16.121704,86.308593 C 19.165954,86.829723 21.746584,87.823823 23.524374,89.160213 C 24.645154,90.002713 25.189184,90.754533 25.617574,92.052855 C 26.091314,93.488607 26.511304,94.306857 27.664424,96.040607 C 29.242224,98.412877 29.737454,100.07597 29.621114,102.61156 C 29.514954,104.92515 28.824944,106.1863 27.547144,106.40219 C 26.568704,106.56749 25.745284,107.83566 24.788944,110.65016 C 23.448634,114.5947 22.830244,118.37913 22.827164,122.65605 C 22.824464,126.39169 23.136864,128.34172 23.770824,128.54652 C 24.206594,128.68731 24.656254,129.54968 25.290624,131.46128 C 26.113424,133.94069 27.231354,136.59351 29.865014,142.31628 C 32.888784,148.88674 33.279524,150.19178 32.980974,152.72324 C 32.658174,155.46038 31.762784,158.78354 30.873384,160.54542 C 30.269984,161.74076 29.785884,161.99661 29.785884,161.12017 C 29.785884,160.90558 29.752104,160.73001 29.710824,160.73001 C 29.449714,160.73001 29.031284,161.13092 28.327584,162.05533 C 27.811304,162.73354 27.300514,163.242 26.897404,163.47895 C 26.187714,163.89613 25.605624,163.92642 22.224154,163.72208 C 20.001444,163.58776 19.206054,163.75547 17.962044,164.62075 C 15.695004,166.19759 12.616744,167.15573 11.952334,166.49132 L 11.952334,166.49133 z "
     style="opacity:0.54035088;fill:#ffff00;fill-opacity:1;stroke:#ff0000;stroke-width:0.13266186;stroke-opacity:1"
     id="path2492" />
  <path
     d="M 48.265154,177.05783 C 47.955594,176.91626 46.984694,176.19725 46.107614,175.46003 C 43.532204,173.29532 42.211394,172.75493 38.360524,172.2904 C 36.046954,172.01132 34.949544,171.39906 34.327324,170.04024 C 33.741894,168.76179 33.556254,167.1776 33.748154,165.09794 C 34.007164,162.29093 34.674914,160.48839 36.609264,157.37452 C 39.048284,153.44825 39.977884,151.41147 40.739744,148.32452 C 41.846204,143.84132 42.167904,139.08117 42.167244,127.2023 C 42.166524,114.3251 41.784584,107.22439 40.844504,102.61136 C 40.271444,99.799347 39.862544,98.967597 38.807624,98.468217 C 38.025124,98.097797 37.940984,97.993517 37.886334,97.326537 C 37.821314,96.532857 38.229504,95.288417 38.752224,94.686737 C 38.931514,94.480367 39.544184,93.919437 40.113704,93.440237 C 41.179204,92.543717 41.614874,91.863535 41.959094,90.559263 C 42.208544,89.614053 43.173544,88.432673 43.966954,88.101163 C 44.824074,87.743033 45.835174,88.083533 47.809804,89.395293 C 50.432524,91.137575 51.458474,92.038805 51.945644,93.028367 C 52.369764,93.889867 52.392324,94.118557 52.386844,97.500917 C 52.380214,101.6005 52.195294,102.39761 50.715154,104.70676 C 48.966954,107.43413 49.079824,106.8203 49.095584,113.51463 C 49.110054,119.66053 48.979964,125.26207 48.432654,142.05882 L 48.111724,151.90846 L 50.049504,155.09054 C 52.233624,158.67712 53.758304,161.78513 54.286764,163.72803 C 54.743524,165.40736 54.745814,168.13263 54.291874,169.82543 C 53.878074,171.36856 52.528284,174.17694 51.695994,175.22644 C 51.051744,176.03884 49.401434,177.33613 49.029484,177.32257 C 48.918664,177.31853 48.574714,177.1994 48.265154,177.05783 L 48.265154,177.05783 z "
     style="opacity:0.54035088;fill:#ffff00;fill-opacity:1;stroke:#ff0000;stroke-width:0.18761221;stroke-opacity:1"
     id="path2494" />
  <path
     d="M 72.578283,178.54975 C 71.917103,178.19348 70.414443,177.16118 69.239033,176.25576 C 65.440413,173.32969 64.415593,172.70764 62.661933,172.26353 C 60.374543,171.68427 58.865243,168.33982 58.865243,163.85047 C 58.865243,160.41087 59.439743,158.33914 61.805653,153.247 C 63.489693,149.62237 64.669413,146.17967 65.318033,142.99688 C 67.042783,134.53334 67.166743,121.1843 65.614923,111.02216 C 65.104133,107.67723 64.493153,105.33866 63.454763,102.75407 C 62.998733,101.61901 62.533923,100.08508 62.421843,99.345317 C 62.013433,96.649637 62.902843,93.458097 64.480773,91.957035 C 65.513223,90.974885 67.249683,90.511693 68.644643,90.846345 C 69.874553,91.141395 71.379553,91.795675 72.781053,92.644607 C 74.359233,93.600547 74.624663,94.263047 74.624663,97.245927 C 74.624663,100.06341 74.192163,102.66883 73.145963,106.15365 C 72.230113,109.20427 71.877683,111.39209 71.623373,115.6055 C 71.118703,123.96657 70.863193,149.53245 71.249293,153.03414 C 71.534903,155.62452 71.760573,156.39019 73.074013,159.22534 C 75.222583,163.86311 75.390513,164.60562 75.380233,169.42067 C 75.368363,174.97996 74.724123,179.23167 73.898153,179.20178 C 73.833393,179.19944 73.239453,178.90602 72.578283,178.54975 L 72.578283,178.54975 z "
     style="opacity:0.54035088;fill:#ffff00;fill-opacity:1;stroke:#ff0000;stroke-width:0.18761221;stroke-opacity:1"
     id="path2496" />
  <path
     d="M 94.034983,199.73247 C 93.729573,199.57548 91.453483,197.39501 88.977003,194.88698 C 84.545503,190.39903 82.569013,188.68412 81.592453,188.47975 C 80.498373,188.25077 79.886383,187.83857 79.462773,187.04526 C 79.093213,186.35323 79.033893,185.96767 79.035993,184.27157 C 79.038133,182.56054 79.108973,182.11671 79.575193,180.89455 C 81.113613,176.86154 81.070923,177.05015 81.039743,174.42193 C 81.013083,172.17673 81.047703,171.90712 81.475213,171.02817 C 81.730643,170.50303 82.494093,169.44772 83.171793,168.68302 C 85.178113,166.41912 86.078913,165.14052 86.927013,163.35281 C 89.145323,158.67679 90.103423,151.56764 90.568003,136.33665 C 90.911203,125.085 90.331163,116.02075 88.605073,105.66205 C 87.688643,100.16243 87.742133,99.737547 89.478283,98.723997 C 90.381573,98.196657 90.604423,98.146157 91.791183,98.199887 C 93.555883,98.279767 95.277013,99.086167 96.682383,100.49153 C 97.937663,101.7468 98.565783,103.06541 98.743263,104.8178 C 98.943783,106.79761 99.073143,107.04125 99.846953,106.89608 C 100.21245,106.82751 100.53633,106.85783 100.60376,106.96692 C 100.79409,107.27489 100.17669,109.44494 98.802173,113.29922 C 95.612653,122.24291 94.054853,131.58424 93.570593,144.67029 C 93.196903,154.7685 93.841313,162.27283 95.730683,169.82543 C 97.064133,175.15567 97.354633,178.51237 97.235723,187.21508 L 97.155783,193.06658 L 96.574263,195.09479 C 95.630143,198.38771 95.265233,199.40709 94.918093,199.72124 C 94.622963,199.98834 94.534903,199.98946 94.034983,199.73247 L 94.034983,199.73247 z "
     style="opacity:0.54035088;fill:#ffff00;fill-opacity:1;stroke:#ff0000;stroke-width:0.18761221;stroke-opacity:1"
     id="path2498" />
  <path
     d="M 107.80615,219.87006 C 107.17187,219.33028 106.46341,218.24259 103.01033,212.50721 C 97.958463,204.11631 97.882853,203.84832 99.312333,199.40219 C 100.24988,196.48612 100.50218,194.33768 100.70372,187.55478 C 100.89639,181.0693 100.97609,180.23829 101.81718,175.94499 C 103.13305,169.22819 105.29825,151.99709 106.06344,142.15263 C 106.40917,137.70479 106.33801,135.00368 105.76097,130.67036 C 104.85664,123.87943 105.19461,115.23075 106.46589,112.63071 C 106.78488,111.97828 106.84092,111.94846 107.6928,111.97757 C 109.16994,112.02804 111.89385,113.71629 114.19043,116.00473 C 116.57967,118.38551 116.67346,120.23146 114.7993,127.98791 C 113.30563,134.16959 112.73037,138.08828 111.86612,147.96861 C 111.60438,150.96102 110.95233,157.504 110.41713,162.50855 C 109.49659,171.11633 109.44384,171.88131 109.43971,176.67328 C 109.43553,181.54582 109.45489,181.82138 109.94812,183.90639 C 110.23014,185.09856 110.92941,187.58911 111.50204,189.44095 C 113.7722,196.78242 113.88254,197.70023 112.87969,200.89908 C 112.04564,203.55953 112.06339,204.68553 112.97749,207.09925 C 113.45532,208.36098 113.65853,209.15653 113.58142,209.46371 C 113.51752,209.71832 112.95303,210.42478 112.32699,211.03361 C 110.92232,212.39971 110.76934,212.9244 111.04957,215.4152 C 111.30647,217.69858 111.09094,218.60406 110.05598,219.58957 C 109.1924,220.41187 108.53857,220.49339 107.80613,219.87005 L 107.80615,219.87006 z "
     style="opacity:0.54035088;fill:#ffff00;fill-opacity:1;stroke:#ff0000;stroke-width:0.18761221;stroke-opacity:1"
     id="path2500" />
  <path
     d="M 24.542354,86.170163 C 24.330514,86.044833 23.793814,85.543123 23.349684,85.055253 C 21.603744,83.137349 19.147084,82.548354 11.700864,82.262414 C 8.8632336,82.153453 6.2945836,82.004436 5.9927636,81.931279 C 5.2027036,81.739775 4.6866636,80.97756 4.8484236,80.241039 C 5.0173236,79.472088 6.5953936,77.760997 8.0283136,76.793139 C 10.915754,74.842821 11.582414,74.00501 11.957794,71.854775 C 12.102384,71.02649 12.561844,69.213938 12.978794,67.826878 C 13.395764,66.439824 13.875874,64.762642 14.045744,64.099813 C 14.965784,60.509719 15.134854,55.051432 14.496144,49.558239 C 13.650564,42.285847 14.550844,40.006648 18.267294,40.010942 C 19.693324,40.01259 20.143414,40.185302 20.143414,40.73085 C 20.143414,42.025453 23.574774,43.211727 28.304554,43.552279 C 30.258364,43.692958 31.053314,43.968778 31.508894,44.66408 C 32.323864,45.907881 31.676354,48.061347 28.657894,54.145712 C 24.466994,62.593421 24.127424,64.922114 25.876194,73.221797 C 26.237664,74.937349 26.549404,76.880576 26.568944,77.540069 C 26.602884,78.685437 26.577424,78.760319 26.000524,79.211815 C 25.252084,79.797563 25.234284,80.217321 25.865594,82.395818 C 26.517484,84.64536 26.456494,85.513573 25.600434,86.170843 C 25.227424,86.457223 25.027374,86.457093 24.542364,86.170163 L 24.542354,86.170163 z "
     style="opacity:0.54035088;fill:#66cc33;fill-opacity:1;stroke:#ff0000;stroke-width:0.18761221;stroke-opacity:1"
     id="path2504" />
  <path
     d="M 50.255174,87.045053 C 46.570734,84.063572 45.221014,83.881206 42.072024,85.939393 C 41.207054,86.504733 40.395424,86.968843 40.268414,86.970733 C 39.903904,86.976153 39.792604,86.170043 39.886204,84.201794 C 39.985324,82.11696 40.301464,81.078499 41.367054,79.337547 C 42.285464,77.83704 43.024544,76.00033 43.864394,73.131289 C 45.830454,66.414944 45.969604,64.281193 44.723434,59.958006 C 43.009184,54.010939 42.188864,49.984584 41.979324,46.488952 C 41.868804,44.645118 41.890314,44.441448 42.241324,44.010968 C 42.553644,43.627909 42.790104,43.541979 43.531454,43.542162 C 44.639854,43.542438 45.590384,43.917175 45.717724,44.404062 C 45.866724,44.973906 47.042804,45.339713 49.299214,45.518044 C 51.596844,45.699633 52.476264,45.904271 53.001404,46.379516 C 53.483964,46.816228 53.439984,47.473991 52.904784,47.824668 C 52.178694,48.300423 52.150514,48.921522 52.783324,50.501898 C 53.095434,51.28132 53.350784,52.150606 53.350784,52.433642 C 53.350784,53.234239 52.860324,54.6985 51.820934,57.001038 C 51.296404,58.163028 50.653364,59.915793 50.391964,60.896067 C 49.962954,62.504862 49.914884,63.04369 49.898324,66.430627 C 49.882204,69.721557 49.933834,70.423561 50.318194,72.140602 C 50.964554,75.028142 51.721784,76.938061 53.202024,79.414412 C 54.944264,82.329071 55.293504,83.123447 55.149384,83.844062 C 55.025534,84.463301 52.255464,88.288033 51.943684,88.270283 C 51.840504,88.264403 51.080674,87.713053 50.255174,87.045063 L 50.255174,87.045053 z "
     style="opacity:0.54035088;fill:#66cc33;fill-opacity:1;stroke:#ff0000;stroke-width:0.18761221;stroke-opacity:1"
     id="path2506" />
  <path
     d="M 74.269543,90.169953 C 74.063163,90.083353 73.556613,89.659283 73.143863,89.227573 C 71.947543,87.976283 70.807723,87.485303 68.870393,87.386753 C 67.424303,87.313203 67.054333,87.364693 65.835953,87.809053 C 64.121273,88.434433 63.411953,88.400773 63.329873,87.690163 C 63.259253,87.078683 63.616223,86.361463 64.804353,84.727954 C 66.765293,82.03189 68.370093,77.8842 69.125403,73.559891 C 69.454603,71.67505 69.553703,70.375003 69.561463,67.837718 C 69.573023,64.067131 69.318663,62.530848 68.179123,59.488975 C 66.963043,56.242742 66.576633,54.081858 67.053073,53.191632 C 67.269913,52.786437 68.028713,52.712167 68.831843,53.017519 C 69.104913,53.121349 70.355703,53.291425 71.611333,53.395471 C 74.053033,53.597796 75.231053,53.921179 75.794353,54.543778 C 76.398373,55.211334 76.092713,58.024637 74.810463,63.599998 C 73.572933,68.980965 73.055333,73.027057 73.052063,77.345462 C 73.048673,81.836553 73.503983,84.111475 74.688293,85.520663 C 75.899293,86.961623 76.750013,89.454583 76.240313,90.068743 C 75.987263,90.373653 74.889353,90.430033 74.269543,90.169953 L 74.269543,90.169953 z "
     style="opacity:0.54035088;fill:#66cc33;fill-opacity:1;stroke:#ff0000;stroke-width:0.18761221;stroke-opacity:1"
     id="path2508" />
  <path
     d="M 97.279443,98.174537 C 97.036543,98.061237 96.422203,97.352637 95.914233,96.599867 C 94.595293,94.645277 94.480853,94.590887 92.022893,94.750197 C 89.601433,94.907137 88.763423,94.670767 88.362723,93.717797 C 88.045063,92.962277 88.244543,91.823585 88.832473,91.036595 C 91.437203,87.549843 92.187373,85.163103 92.185403,80.368743 C 92.183843,76.578984 91.228633,70.753478 89.838443,66.055402 C 88.790673,62.514475 88.527603,58.795688 89.254543,57.801536 C 89.474473,57.500743 89.577083,57.513662 90.791463,57.995087 C 92.952773,58.851913 95.626263,60.263772 96.161333,60.8309 C 96.981853,61.700587 97.087053,62.255514 97.097553,65.769934 C 97.108583,69.455891 97.055753,70.402886 96.380163,78.62542 C 96.084523,82.223524 95.930573,85.268993 95.976443,86.611613 L 96.050603,88.781823 L 97.428523,91.654155 C 98.622753,94.143527 98.816643,94.692127 98.882833,95.768947 C 98.964503,97.097437 98.754753,97.730977 98.096293,98.144747 C 97.815003,98.321497 97.610503,98.328957 97.279443,98.174537 z "
     style="opacity:0.54035088;fill:#66cc33;fill-opacity:1;stroke:#ff0000;stroke-width:0.18761221;stroke-opacity:1"
     id="path2510" />
  <path
     d="M 113.88397,111.69208 C 113.41186,111.35672 112.51515,110.64217 111.89128,110.10419 C 110.48295,108.8897 109.64877,108.63083 108.04414,108.91026 C 106.61152,109.15973 106.25742,109.16369 106.25742,108.9302 C 106.25742,108.82998 106.64624,108.09126 107.12148,107.28859 C 110.45738,101.65433 110.95435,98.067697 109.44546,90.516593 C 108.54417,86.006283 108.32796,84.552899 108.32444,82.981378 C 108.31778,80.012471 109.17231,79.376642 112.14013,80.142295 C 113.59814,80.518446 114.60288,81.077302 114.86826,81.659731 C 115.23581,82.466422 115.09091,83.857786 114.33227,86.806733 C 113.19997,91.208085 112.96637,92.939327 112.95538,97.011417 C 112.94099,102.35951 113.56336,105.17729 115.29838,107.61904 C 115.77202,108.28561 116.29916,109.2458 116.46981,109.75279 C 117.22628,112.00038 115.81163,113.06133 113.88397,111.69208 z "
     style="opacity:0.54035088;fill:#66cc33;fill-opacity:1;stroke:#ff0000;stroke-width:0.18761221;stroke-opacity:1"
     id="path2512" />
  <path
     d="M 50.419764,42.369559 C 50.031564,42.274924 49.616344,41.955213 49.316634,41.520157 C 49.089134,41.189941 48.638184,40.96219 47.816274,40.762411 C 46.745394,40.502114 46.490224,40.482729 43.849734,40.461074 L 41.558044,40.44228 L 42.068574,39.662891 C 43.316594,37.757625 43.499844,37.466069 43.704974,37.059402 C 43.952404,36.568864 44.151764,36.03861 44.297284,35.484042 C 44.484214,34.771668 44.512754,34.538621 44.514604,33.70969 C 44.516184,33.00572 44.508744,32.904676 44.418214,32.399654 C 44.332684,31.922512 44.319974,31.771716 44.318954,31.22228 C 44.317954,30.681733 44.328714,30.543185 44.394634,30.247862 C 44.544704,29.575552 44.796304,29.001425 45.188474,28.436381 C 45.448574,28.061623 45.581674,27.904936 46.108254,27.353637 C 47.163724,26.248625 48.198124,25.443083 48.521534,25.474298 C 48.625884,25.48437 48.628784,25.488875 48.626984,25.638483 C 48.625534,25.758484 48.582774,25.874905 48.432544,26.167907 C 48.247654,26.528485 48.240794,26.550844 48.261034,26.727135 C 48.289154,26.972286 48.522044,27.438379 48.803024,27.811885 C 49.124234,28.238871 49.643464,28.758274 50.308104,29.317472 C 51.877034,30.637504 52.659784,31.864465 52.716124,33.092051 C 52.740944,33.632964 52.655914,33.962858 52.390254,34.356417 C 52.241444,34.576869 52.121914,34.693365 51.798514,34.933158 C 51.380014,35.24347 51.281464,35.456753 51.306464,35.998107 C 51.324464,36.388017 51.461454,36.840016 51.714054,37.342978 C 52.229664,38.369616 52.446754,39.11811 52.483194,39.994919 C 52.507404,40.577124 52.450024,40.884046 52.235274,41.321164 C 52.109964,41.576253 52.029744,41.68735 51.813944,41.904718 C 51.372514,42.349345 50.935104,42.495185 50.419764,42.369559 L 50.419764,42.369559 z "
     style="opacity:0.54035088;fill:#0099ff;fill-opacity:1;stroke:#ff0000;stroke-width:0.03316547;stroke-opacity:1"
     id="path2520" />
  <path
     d="M 69.838143,50.33974 C 69.453173,50.305994 69.099223,50.194956 68.611023,49.954778 C 68.220373,49.762594 68.133693,49.704423 67.931133,49.498551 C 67.588923,49.150739 67.306043,48.614128 67.036783,47.801962 C 66.523113,46.252631 66.363063,44.365062 66.694593,43.766351 C 66.823293,43.533927 66.873623,43.519908 67.724243,43.479561 C 70.208703,43.361719 71.510033,43.514412 72.395873,44.027713 C 72.652073,44.176169 73.129083,44.650958 73.280853,44.908572 C 73.593213,45.438789 73.888123,46.304998 73.957453,46.895898 C 74.018403,47.415432 73.923573,47.896652 73.677433,48.316828 C 73.437103,48.727081 72.669443,49.375706 71.913793,49.806973 C 71.180613,50.225421 70.506853,50.39836 69.838143,50.339741 L 69.838143,50.33974 z "
     style="opacity:0.54035088;fill:#0099ff;fill-opacity:1;stroke:#ff0000;stroke-width:0.03316547;stroke-opacity:1"
     id="path2522" />
  <path
     d="M 94.560443,56.263847 C 94.168403,56.176543 93.697893,55.902583 92.622823,55.135634 C 91.917053,54.632144 91.717923,54.508391 91.290133,54.307423 C 90.544213,53.956995 90.037603,53.877148 89.620253,54.044226 C 89.331533,54.159806 89.200033,54.140735 89.037303,53.959684 C 88.862873,53.765622 88.791843,53.498962 88.793703,53.045157 C 88.795923,52.498761 88.915353,52.213969 89.202663,52.069941 C 89.499673,51.921041 89.878253,51.969018 90.748973,52.265903 C 91.411113,52.491674 91.652913,52.537871 91.724023,52.452194 C 91.761793,52.406677 91.755563,52.372392 91.682283,52.222624 C 91.594653,52.043491 91.305783,51.639966 90.965313,51.221056 C 90.277383,50.374619 89.941633,49.768383 89.930163,49.351931 C 89.920613,49.005635 90.085903,48.872638 90.519723,48.877541 C 90.997683,48.882943 91.626273,49.088543 92.523463,49.532922 C 93.526603,50.029775 94.138113,50.543006 94.653093,51.320291 C 95.104393,52.001451 95.348563,52.715744 95.440593,53.62404 C 95.486113,54.073308 95.487383,55.178647 95.442723,55.470752 C 95.338793,56.150483 95.083173,56.380256 94.560443,56.263847 L 94.560443,56.263847 z "
     style="opacity:0.54035088;fill:#0099ff;fill-opacity:1;stroke:#ff0000;stroke-width:0.03316547;stroke-opacity:1"
     id="path2524" />
  <path
     d="M 113.85998,77.197908 C 113.73931,77.108854 113.66131,77.015775 113.39379,76.641563 C 113.14367,76.291685 112.93999,76.098701 112.62943,75.917321 C 112.15974,75.643007 111.66302,75.503035 110.9799,75.452497 C 110.37436,75.407698 110.12107,75.310429 109.86136,75.022961 C 109.50014,74.623132 109.33554,73.974975 109.2872,72.762026 C 109.26533,72.213113 109.30801,71.302907 109.37351,70.921343 C 109.46048,70.4147 109.63689,70.084326 109.8792,69.974318 C 110.10892,69.870026 110.29528,69.890522 110.8308,70.07897 C 111.93071,70.466017 112.67026,70.681197 113.50048,70.855735 C 114.10012,70.981799 114.24876,71.043117 114.46392,71.253179 C 114.67375,71.45804 114.8148,71.730439 114.90098,72.097282 C 114.99713,72.506509 114.98066,73.584204 114.86474,74.470048 C 114.64916,76.117388 114.46726,76.900179 114.23987,77.159169 C 114.12095,77.294608 114.00679,77.30625 113.85998,77.197908 z "
     style="opacity:0.54035088;fill:#0099ff;fill-opacity:1;stroke:#ff0000;stroke-width:0.03316547;stroke-opacity:1"
     id="path2526" />
  <path
     d="M 27.947934,40.069497 C 26.041024,39.848434 23.720694,39.405098 22.784094,39.08286 C 22.373344,38.94154 21.679984,38.605385 21.243294,38.335842 C 20.380174,37.803091 19.374274,37.487926 18.533194,37.486717 C 17.570024,37.485335 16.450954,37.242726 16.262634,36.994473 C 16.012894,36.665249 16.034134,35.71221 16.334584,33.765886 C 16.855884,30.38892 17.356974,28.659082 17.975854,28.099922 C 18.383894,27.731257 19.047594,27.537968 19.908524,27.537077 C 21.162264,27.535781 22.199694,27.301469 23.208684,26.79171 C 25.220584,25.775262 26.820304,23.343194 26.820304,21.300914 C 26.820304,20.323701 27.435894,19.437081 29.355044,17.650185 C 30.321764,16.750097 30.558444,16.227257 30.351464,15.449058 C 30.186454,14.828649 30.434104,14.197903 30.946804,13.932778 C 31.268974,13.766175 31.395584,13.764635 31.851684,13.921771 C 33.528534,14.499494 36.117814,17.659163 36.651614,19.779061 C 36.922304,20.85405 36.258844,22.352063 34.861904,23.82005 C 33.596284,25.150034 32.967864,26.675746 32.828924,28.755881 C 32.687384,30.874957 33.124584,32.247242 34.355574,33.547681 C 35.400684,34.651753 35.575994,34.937029 35.575994,35.533664 C 35.575994,36.181079 35.305164,36.698974 34.533674,37.526869 C 33.462784,38.67604 31.913574,39.693451 30.676594,40.059916 C 29.865584,40.300182 29.935754,40.299936 27.947934,40.069495 L 27.947934,40.069497 z "
     style="opacity:0.54035088;fill:#ff3300;fill-opacity:1;stroke:#ff0000;stroke-width:0.13266186;stroke-opacity:1"
     id="path2530" />
  <path
     d="M 51.163714,26.956005 C 50.542994,26.685484 50.396034,26.431261 50.501054,25.80969 C 50.587634,25.297236 50.561954,25.23692 50.049894,24.749805 C 49.648464,24.367935 49.231074,24.146155 48.448674,23.898994 C 47.044324,23.455361 46.579934,23.24807 46.222104,22.905108 C 45.569054,22.279186 46.010784,21.697467 47.636864,21.041991 C 48.207944,20.811791 48.842574,20.448734 49.047144,20.235204 C 49.425444,19.840347 49.437004,19.774233 49.366254,18.410318 C 49.321164,17.541163 50.018204,16.893965 51.475844,16.451579 C 52.794044,16.051508 53.366244,16.296073 53.890994,17.483839 C 54.110864,17.981532 54.202894,18.443247 54.207914,19.073912 C 54.214634,19.918876 54.191254,19.987471 53.733184,20.466862 C 53.468194,20.744185 53.184634,21.101479 53.103044,21.260851 C 52.895554,21.666135 52.918284,23.317337 53.152854,24.879043 C 53.354124,26.219086 53.290014,26.796051 52.913234,27.035633 C 52.663394,27.194491 51.599844,27.146081 51.163704,26.956003 L 51.163714,26.956005 z "
     style="opacity:0.54035088;fill:#ff3300;fill-opacity:1;stroke:#ff0000;stroke-width:0.13266186;stroke-opacity:1"
     id="path2532" />
  <path
     d="M 70.532393,40.883055 C 68.145163,40.431067 67.506583,40.222054 67.092153,39.757029 C 66.660863,39.273098 66.927103,38.858444 68.074283,38.227347 C 68.642253,37.914894 69.150453,37.530558 69.264633,37.327126 C 69.447863,37.000687 69.439113,36.915502 69.155933,36.268012 C 68.231413,34.154119 68.417963,33.532427 71.031733,30.01687 L 72.098243,28.582372 L 72.555113,29.419893 C 73.985933,32.042911 74.134713,33.080298 73.395403,35.278588 C 72.818563,36.993782 72.856003,37.679502 73.586323,38.774969 C 73.982013,39.368505 74.100593,39.677986 74.106553,40.132658 C 74.113423,40.657575 74.065273,40.754886 73.663493,41.028126 C 73.415573,41.196731 73.117083,41.32914 73.000183,41.322369 C 72.883293,41.315597 71.772783,41.117906 70.532393,40.883056 L 70.532393,40.883055 z "
     style="opacity:0.54035088;fill:#ff3300;fill-opacity:1;stroke:#ff0000;stroke-width:0.13266186;stroke-opacity:1"
     id="path2534" />
  <path
     d="M 93.019323,45.977472 C 91.888793,45.323446 90.944393,44.730133 90.920693,44.658994 C 90.896973,44.587858 91.182373,43.831084 91.554933,42.97728 C 91.927483,42.123479 92.239623,41.229566 92.248593,40.990812 C 92.265243,40.548064 91.925733,39.875399 91.685613,39.875399 C 91.612543,39.875399 91.494013,39.720962 91.422243,39.532205 C 91.219593,38.999186 91.659533,38.185031 92.783913,37.012296 C 93.649133,36.109857 93.808183,35.997844 94.115003,36.07485 C 94.710923,36.224414 96.467783,38.784069 96.467783,39.502717 C 96.467783,39.647746 96.198153,40.028464 95.868583,40.34876 C 95.539023,40.669058 95.210683,41.085503 95.138943,41.274198 C 94.919373,41.851734 94.992043,43.094675 95.355313,44.974364 C 95.715473,46.838129 95.708733,47.173577 95.311163,47.169201 C 95.181173,47.16777 94.149853,46.631491 93.019323,45.977469 L 93.019323,45.977472 z "
     style="opacity:0.54035088;fill:#ff3300;fill-opacity:1;stroke:#ff0000;stroke-width:0.13266186;stroke-opacity:1"
     id="path2536" />
  <path
     d="M 111.36816,66.138553 C 110.21492,65.552701 109.19928,65.000496 109.1112,64.911432 C 108.98568,64.784484 109.22289,64.520219 110.2093,63.688204 C 112.18488,62.021827 112.61866,61.235667 112.44188,59.642017 C 112.27609,58.147627 112.29824,56.804837 112.49472,56.438285 C 113.12105,55.269795 114.23244,55.913282 114.70568,57.71842 C 115.21322,59.654324 115.51697,65.116768 115.18067,66.260224 C 114.79552,67.56971 114.14451,67.548939 111.36816,66.138555 L 111.36816,66.138553 z "
     style="opacity:0.54035088;fill:#ff3300;fill-opacity:1;stroke:#ff0000;stroke-width:0.13266186;stroke-opacity:1"
     id="path2538" />
  <text
     x="27.357151"
     y="8.7480469"
     style="font-size:12px;font-style:normal;font-weight:normal;fill:#000000;fill-opacity:1;stroke:none;stroke-width:1px;stroke-linecap:butt;stroke-linejoin:miter;stroke-opacity:1;font-family:Bitstream Vera Sans"
     id="text2456"
     xml:space="preserve"><tspan
       x="27.357151"
       y="8.7480469"
       id="tspan2458">I</tspan></text>
  <text
     x="49.120182"
     y="9.4984989"
     style="font-size:12px;font-style:normal;font-weight:normal;fill:#000000;fill-opacity:1;stroke:none;stroke-width:1px;stroke-linecap:butt;stroke-linejoin:miter;stroke-opacity:1;font-family:Bitstream Vera Sans"
     id="text2460"
     xml:space="preserve"><tspan
       x="49.120182"
       y="9.4984989"
       id="tspan2462">II</tspan></text>
  <text
     x="66.380524"
     y="24.507479"
     style="font-size:12px;font-style:normal;font-weight:normal;fill:#000000;fill-opacity:1;stroke:none;stroke-width:1px;stroke-linecap:butt;stroke-linejoin:miter;stroke-opacity:1;font-family:Bitstream Vera Sans"
     id="text2464"
     xml:space="preserve"><tspan
       x="66.380524"
       y="24.507479"
       id="tspan2466">III</tspan></text>
  <text
     x="88.89399"
     y="31.261511"
     style="font-size:12px;font-style:normal;font-weight:normal;fill:#000000;fill-opacity:1;stroke:none;stroke-width:1px;stroke-linecap:butt;stroke-linejoin:miter;stroke-opacity:1;font-family:Bitstream Vera Sans"
     id="text2468"
     xml:space="preserve"><tspan
       x="88.89399"
       y="31.261511"
       id="tspan2470">IV</tspan></text>
  <text
     x="110.65699"
     y="48.521843"
     style="font-size:12px;font-style:normal;font-weight:normal;fill:#000000;fill-opacity:1;stroke:none;stroke-width:1px;stroke-linecap:butt;stroke-linejoin:miter;stroke-opacity:1;font-family:Bitstream Vera Sans"
     id="text2472"
     xml:space="preserve"><tspan
       x="110.65699"
       y="48.521843"
       id="tspan2474">V</tspan></text>
</svg>
