<?xml version="1.0" encoding="UTF-8" standalone="no"?>
<!-- Created with Inkscape (http://www.inkscape.org/) -->
<svg
   xmlns:svg="http://www.w3.org/2000/svg"
   xmlns="http://www.w3.org/2000/svg"
   version="1.0"
   width="300"
   height="300"
   viewBox="0 0 300 300"
   id="Layer_1"
   xml:space="preserve"><defs
   id="defs40">
	
	

		
	</defs>
<style
   type="text/css"
   id="style3" />
<path
   d="M 147.402,33.543 C 84.78,33.543 34.016,84.307 34.016,146.929 C 34.016,209.551 84.78,260.314 147.402,260.314 C 210.023,260.314 260.787,209.55 260.787,146.929 C 260.787,84.308 210.022,33.543 147.402,33.543 z M 147.4,222.52 C 105.653,222.52 71.81,188.678 71.81,146.93 C 71.81,105.183 105.653,71.34 147.4,71.34 C 189.147,71.34 222.991,105.183 222.991,146.93 C 222.991,188.678 189.147,222.52 147.4,222.52 z "
   style="fill:#67db58;fill-opacity:0.25"
   id="path9" /><g
   id="g11">
		<path
   d="M 147.402,33.543 C 84.78,33.543 34.016,84.307 34.016,146.929 C 34.016,209.551 84.78,260.314 147.402,260.314 C 210.023,260.314 260.787,209.55 260.787,146.929 C 260.787,84.308 210.022,33.543 147.402,33.543 z M 147.4,222.52 C 105.653,222.52 71.81,188.678 71.81,146.93 C 71.81,105.183 105.653,71.34 147.4,71.34 C 189.147,71.34 222.991,105.183 222.991,146.93 C 222.991,188.678 189.147,222.52 147.4,222.52 z "
   style="fill:none;stroke:#000000"
   id="path13" />
	</g>
<line
   fill="none"
   stroke="#000000"
   x1="147.40199"
   y1="152.599"
   x2="147.40199"
   y2="141.25999"
   id="line15"
   style="fill:none;stroke:#000000" />
<line
   fill="none"
   stroke="#000000"
   x1="141.73199"
   y1="146.929"
   x2="153.071"
   y2="146.929"
   id="line17"
   style="fill:none;stroke:#000000" />




</svg>