<?xml version="1.0" encoding="utf-8"?>
<!-- Generator: Adobe Illustrator 12.0.1, SVG Export Plug-In . SVG Version: 6.00 Build 51448)  -->
<!DOCTYPE svg PUBLIC "-//W3C//DTD SVG 1.1//EN" "http://www.w3.org/Graphics/SVG/1.1/DTD/svg11.dtd" [
	<!ENTITY ns_svg "http://www.w3.org/2000/svg">
	<!ENTITY ns_xlink "http://www.w3.org/1999/xlink">
]>
<svg  version="1.1" id="Layer_1" xmlns="&ns_svg;" xmlns:xlink="&ns_xlink;" width="510.845" height="526.296"
	 viewBox="0 0 510.845 526.296" overflow="visible" enable-background="new 0 0 510.845 526.296" xml:space="preserve">
<g>
	<path fill="#414142" d="M43.407,0h70.203c0,0,3.12,9.806,4.458,14.263c1.337,4.458,5.572,21.396,6.909,26.076
		s6.909,27.412,8.469,32.538c1.56,5.126,5.348,16.938,6.686,21.396c1.337,4.457,7.8,24.292,9.806,28.526s8.023,15.155,13.595,20.727
		c5.571,5.572,12.48,10.697,14.709,12.48c2.229,1.783,5.794,4.903,6.908,8.692c1.115,3.789,3.121,8.469,3.344,12.258
		c0.222,3.789,0.222,10.029-0.669,13.595c-0.892,3.565-2.675,5.794-3.566,9.806c-0.891,4.011-0.891,8.691-1.56,11.589
		c-0.668,2.897-1.337,4.681-2.674,6.24s-2.674,3.789-3.12,6.24c-0.446,2.452-1.114,5.126-2.897,7.578
		c-1.783,2.451-6.017,6.686-10.474,7.354c-4.458,0.669-9.138,1.561-14.487,0c-5.349-1.56-12.035-6.018-16.938-9.36
		c-4.903-3.343-9.583-7.8-14.041-9.583c-4.458-1.783-12.926-2.229-18.944,0.446c-6.017,2.674-20.503,11.144-25.629,13.371
		c-5.126,2.229-14.709,6.018-21.395,6.464c-6.686,0.445-14.486,0.892-18.944-0.892c-4.457-1.783-9.806-4.903-10.697-7.355
		c-0.892-2.451-1.114-8.022-0.223-10.474c0.892-2.452,2.452-8.023,1.561-10.921c-0.892-2.897-3.566-8.469-4.68-11.812
		c-1.115-3.343-1.561-9.806-0.892-12.926c0.668-3.121,1.56-8.692,2.897-11.144c1.337-2.451,6.018-9.137,8.692-13.149
		s8.469-12.481,10.475-17.161s4.903-12.703,6.24-18.274c1.337-5.572,2.006-14.041,2.006-20.504c0-6.463-1.56-37.664-1.56-42.79
		S43.853,9.36,43.853,9.36L43.407,0z"/>
	<path fill="#D1D3D4" d="M114.501,0c0,0,3.789,11.366,6.909,22.732s8.246,32.315,11.144,43.236
		c2.897,10.92,8.023,29.195,11.812,38.779c3.789,9.583,6.686,20.058,11.589,27.189c4.903,7.132,13.149,16.492,17.829,19.612
		c4.681,3.12,8.023,5.349,10.252,9.137c2.229,3.789,5.126,10.252,5.126,16.492c0,6.24,0.223,11.589-1.337,16.715
		c-1.56,5.126-2.675,6.686-2.897,8.915s-0.668,4.458-0.892,6.686c-0.223,2.229-0.668,5.126-1.783,6.909
		c-1.114,1.783-3.565,4.012-4.011,6.018s-0.446,4.012-1.783,7.132s-5.572,8.469-8.691,9.806c-3.121,1.338-14.932,2.897-20.95,0.224
		c-6.017-2.675-14.041-7.801-18.498-11.144c-4.458-3.343-8.247-7.132-13.595-8.023s-13.372,0.223-24.738,6.687
		c-11.366,6.463-18.275,9.806-24.96,11.812c-6.687,2.006-15.378,4.012-24.292,3.343c-8.915-0.668-14.041-4.012-16.938-6.908
		c-2.897-2.898-3.566-6.018-2.675-10.921s2.675-6.018,2.229-9.806s-1.115-7.577-3.121-10.92c-2.005-3.343-3.343-5.349-2.897-14.264
		s0.892-10.029,3.343-15.155c2.452-5.126,9.806-13.595,13.149-19.389c3.343-5.794,5.795-8.915,8.692-17.829
		c2.897-8.915,4.68-14.264,5.126-25.853s-0.223-22.063-0.892-34.544C46.082,64.186,42.293,0,42.293,0h2.006
		c0,0,1.56,26.521,2.229,37.441s1.783,34.767,2.006,45.465c0.223,10.697,1.114,27.858,0.446,33.652
		c-0.668,5.795-2.006,14.486-4.458,20.95s-8.691,18.275-13.372,24.515s-8.692,10.252-9.806,14.263
		c-1.115,4.012-2.674,8.469-2.674,12.703s0,6.909,0.891,9.36c0.892,2.452,3.12,4.903,4.012,8.023c0.891,3.12,1.56,6.686,1.114,8.692
		s-1.783,8.246-2.229,10.475s-0.892,7.132,3.566,9.807c4.457,2.674,9.137,5.349,18.275,4.902c9.137-0.445,18.498-2.229,24.738-5.126
		c6.24-2.897,16.715-9.806,22.51-12.48c5.794-2.674,8.246-6.017,15.377-5.794s9.36,0.891,14.041,3.788s10.475,7.354,15.155,10.698
		c4.681,3.343,9.806,6.908,14.709,7.577c4.903,0.669,10.029,0,13.15-0.669c3.12-0.669,6.462-3.343,7.8-4.903
		c1.337-1.56,3.12-3.119,1.337-4.457c-1.783-1.337-3.789-2.451-4.903-5.126c-1.115-2.674-1.783-6.463-3.121-8.914
		c-1.337-2.452-2.229-4.012-4.458-5.349c-2.228-1.337-4.234-1.114-4.903-2.897c-0.669-1.783,0-3.789-1.337-5.572
		c-1.337-1.783-1.56-3.566-3.343-4.234c-1.783-0.668-4.68-1.56-6.686-4.234c-2.006-2.675-3.565-5.126-4.234-6.909
		c-0.668-1.783-1.337-4.457-1.337-4.457s2.897,6.24,4.681,8.691c1.783,2.452,2.897,3.566,5.125,4.68
		c2.229,1.115,4.235,1.783,5.349,3.344c1.114,1.56,1.337,3.565,2.229,5.348s0.892,2.674,2.229,3.566
		c1.336,0.892,2.674,1.337,4.457,2.897c1.783,1.56,3.343,3.343,4.012,5.794c0.668,2.452,2.006,5.35,3.12,7.577
		c1.115,2.229,2.229,3.344,3.343,3.79c1.114,0.444,2.674-0.446,2.897-2.229c0.223-1.783,0.668-4.012,2.006-5.795
		c1.337-1.782,3.343-3.119,3.565-6.017c0.223-2.897,0-8.691,0.892-11.812c0.891-3.12,4.234-8.246,4.68-11.589
		c0.446-3.343,1.115-13.149,0-16.714c-1.114-3.566-3.789-10.92-5.572-12.927c-1.783-2.005-13.148-9.137-17.384-13.817
		c-4.234-4.68-9.583-9.583-13.372-17.829c-3.789-8.246-10.697-29.641-12.48-35.436c-1.783-5.794-8.692-29.195-10.92-38.333
		c-2.229-9.138-8.691-35.213-10.252-40.785C115.838,8.023,112.718,0,112.718,0H114.501z"/>
	<path fill="#D1D3D4" d="M94.221,131.713c0,0,1.783-1.783,4.234-3.343s2.674-2.229,5.572-3.566c2.897-1.337,4.68-2.006,7.132-1.783
		c2.451,0.223,4.234,0.446,6.686,2.674s4.68,4.903,6.463,6.686c1.783,1.783,3.121,2.228,5.126,4.011
		c2.006,1.783,5.572,8.023,7.132,12.481c1.56,4.458,2.006,10.474,2.006,16.046s-0.446,8.692-2.229,12.704
		c-1.783,4.012-3.343,6.017-6.018,8.246c-2.674,2.229-3.12,2.451-5.126,5.349c-2.005,2.897-3.789,6.018-6.017,7.8
		c-2.229,1.783-5.572,3.566-7.8,4.234s-3.343,0.892-4.68,2.452c-1.337,1.56-3.12,4.903-6.463,5.572
		c-3.343,0.668-6.463,2.228-8.469,0.668c-2.005-1.56-3.566-4.012-5.794-6.686s-2.674-3.789-6.24-4.68s-11.144-2.006-14.709-4.903
		c-3.566-2.897-6.241-8.469-7.578-11.812c-1.337-3.343-2.897-13.594-2.452-17.606s1.783-10.029,4.234-12.926
		c2.452-2.898,3.566-6.018,6.686-8.692c3.12-2.674,4.458-3.343,6.463-5.794c2.006-2.452,5.349-7.801,8.023-8.915
		s6.686-3.12,9.806-3.12s5.794,0,8.023-0.446c2.229-0.446,4.903-0.668,4.903-0.668s-3.789,1.783-8.692,2.006
		c-4.903,0.223-7.354-0.223-10.251,1.56c-2.897,1.783-4.903,2.229-7.132,4.903c-2.229,2.674-2.674,4.457-4.458,6.24
		c-1.783,1.783-6.463,4.457-7.8,6.463c-1.337,2.006-3.789,4.68-5.349,7.8c-1.56,3.121-2.897,5.126-3.343,9.583
		c-0.445,4.458-0.223,8.246,0.446,11.812c0.669,3.565,1.56,6.463,3.343,9.583c1.783,3.12,4.234,7.577,7.578,9.138
		c3.343,1.56,5.125,2.006,8.023,2.452c2.897,0.446,3.343,0,6.24,1.56c2.897,1.561,3.565,1.115,5.126,4.012
		c1.56,2.897,2.006,4.458,4.457,5.794c2.452,1.337,4.012,2.452,6.24,1.56s3.566-2.006,5.794-3.789
		c2.229-1.783,2.452-3.789,4.458-4.234s2.452,0,6.018-2.006c3.565-2.006,4.234-3.12,5.571-5.126
		c1.337-2.006,2.674-3.565,4.458-5.572c1.783-2.005,5.571-5.572,7.8-8.246c2.229-2.674,5.126-7.578,5.126-14.041
		c0-6.463-0.223-13.149-1.56-16.938c-1.337-3.789-3.12-8.469-5.572-10.92c-2.452-2.452-3.343-3.566-5.349-5.349
		c-2.005-1.783-2.897-3.566-4.457-5.126s-2.674-3.12-5.126-4.234s-4.457-1.783-6.24-0.892c-1.783,0.892-4.457,2.229-6.018,3.12
		c-1.56,0.892-2.451,1.56-4.011,2.452S94.221,131.713,94.221,131.713z"/>
	<path fill="#D1D3D4" d="M118.783,133.034c0.443,1.196,1.65,2.219,0.398,3.583c0.352-3.517-2.414-5.54-4.458-8.023
		C117.372,128.901,118.009,130.942,118.783,133.034z"/>
	<path fill="#D1D3D4" d="M124.428,143.788c0.458,1.193,0.157,2.5-0.789,3.527c1.554-3.059-1.133-5.9-0.446-8.915
		C123.677,140.173,123.745,142.008,124.428,143.788z"/>
	<path fill="#D1D3D4" d="M119.212,177.64c1.712-3.288-0.387-7.407,2.644-10.268c-2.679,6.616-1.454,14.671-7.132,20.058
		C116.732,184.397,117.526,180.878,119.212,177.64z"/>
	<path fill="#D1D3D4" d="M117.4,190.997c-2.206,2.047-3.332,4.986-6.241,6.239c2.995-3.826,6.675-6.574,7.577-11.589
		C118.661,187.524,119.046,189.47,117.4,190.997z"/>
	<path fill="#D1D3D4" d="M66.686,155.331c0.065,1.134-0.455,1.869-0.992,2.681c0.337-3.029,0.948-6.09,3.566-7.578
		C68.868,152.342,66.569,153.322,66.686,155.331z"/>
	<path fill="#D1D3D4" d="M89.095,172.498c0,0-0.223,6.24-0.892,9.138c-0.668,2.897-1.56,3.789-1.337,6.24
		c0.223,2.451,0.891,4.903,1.114,6.909c0.223,2.006,0.668,4.68,0.668,4.68s-1.114-6.241-0.892-10.029
		c0.223-3.789,0.892-3.12,1.337-7.577C89.541,177.401,89.095,172.498,89.095,172.498z"/>
	<path fill="#D1D3D4" d="M120.964,165.812c0,0,0.446-2.006,0.446-5.572c0-3.565-0.223-6.463-0.223-6.463s0.891,3.789,0.891,6.017
		C122.079,162.023,120.964,165.812,120.964,165.812z"/>
	<path fill="#D1D3D4" d="M133.891,114.107c0,0,4.012,15.601,6.018,20.727c2.005,5.126,2.451,6.24,3.789,7.801
		c1.337,1.56,2.897,3.12,4.234,4.457s2.452,3.566,2.452,3.566s-0.892-3.789-2.897-5.795c-2.005-2.005-4.011-4.903-5.572-8.023
		c-1.56-3.12-4.234-11.366-5.125-13.595C135.896,121.016,133.891,114.107,133.891,114.107z"/>
	<path fill="#D1D3D4" d="M150.828,153.109c0,0,1.115,1.56,1.337,4.234c0.223,2.674,0,6.018,0,6.018s1.337-3.789,0.669-6.018
		C152.166,155.114,150.828,153.109,150.828,153.109z"/>
	<path fill="#D1D3D4" d="M26.47,215.065c1.114,1.561,1.56,2.229,1.56,3.565c0,1.338,0,3.344,0,3.344s-0.669-2.897-0.892-4.012
		C26.915,216.849,26.47,215.065,26.47,215.065z"/>
	<path fill="#D1D3D4" d="M25.132,223.312c0.223,2.897-1.56,6.686,3.343,7.132c4.903,0.445,7.132-0.892,10.475-3.789
		c3.343-2.897,5.572-6.018,6.687-9.138c1.114-3.12,2.005-2.897,2.005-6.017s-0.223-4.903,0.669-6.017
		c0.891-1.115,2.897-3.12,2.897-5.795c0-2.674-1.114-6.018-0.223-9.806c0.892-3.789,1.337-5.794,2.675-8.469
		c1.337-2.675,2.451-4.234,2.451-4.234s-3.789,4.234-4.903,7.8c-1.114,3.565-1.114,5.572-1.114,8.915
		c0,3.343,0.446,4.457-0.446,6.686c-0.892,2.229-2.897,3.789-2.897,5.794s0,4.903-0.668,7.354c-0.668,2.452-0.891,4.011-2.897,6.909
		c-2.006,2.897-4.012,5.35-6.018,6.686c-2.006,1.338-4.68,2.452-6.909,2.452s-3.343,0.223-3.789-0.892
		C26.024,227.769,25.132,223.312,25.132,223.312z"/>
	<path fill="#D1D3D4" d="M104.473,242.7c0,0-10.029-1.782-14.264-0.668s-12.926,4.457-16.492,5.571
		c-3.565,1.114-12.926,2.897-18.721,3.12c-5.794,0.224-8.915-0.223-13.372,0c-4.457,0.224-10.029,0.892-12.257,1.337
		c-2.229,0.446-4.458,1.115-5.126,2.675c-0.668,1.561-0.668,3.12-0.668,4.681c0,1.56-0.446,3.119-1.114,4.011
		c-0.669,0.891-2.006,2.006-2.229,4.234c-0.223,2.229-0.668,3.789,0,6.018c0.669,2.229,0.892,3.566,2.897,5.125
		c2.006,1.561,2.674,1.338,3.343,4.012c0.668,2.676,0.223,5.127,2.005,6.463c1.783,1.338,2.675,1.338,4.012,2.453
		c1.337,1.113,2.006,1.113,2.229,3.342c0.223,2.229,1.337,4.012,2.674,6.24c1.337,2.229,6.909,6.91,10.252,10.475
		c3.343,3.566,4.903,3.789,7.8,12.258s5.572,12.703,7.132,20.059c1.56,7.354,5.571,29.863,6.463,44.572s2.674,33.207,3.566,48.809
		c0.892,15.6,1.56,41.898,1.783,50.145c0.223,8.246,0,19.611,0,19.611h1.337c0,0,0.446-21.84-0.446-38.109
		c-0.891-16.27-1.114-25.629-2.006-41.453c-0.891-15.824-1.783-32.539-2.674-43.459c-0.891-10.92-2.006-22.732-2.897-26.297
		c-0.892-3.566-1.337-7.801-2.452-13.15s-4.903-17.605-6.909-22.062c-2.005-4.459-4.011-7.578-6.017-10.029
		c-2.005-2.453-6.463-6.688-8.915-8.916c-2.451-2.229-4.234-3.119-5.349-5.348c-1.115-2.229-1.337-2.898-1.783-4.904
		c-0.445-2.006-1.56-2.674-3.12-3.342s-2.897-0.668-4.012-3.344c-1.114-2.674-1.337-3.789-2.005-5.348
		c-0.668-1.561-4.012-2.676-4.68-5.35c-0.669-2.674-2.006-3.789-1.56-6.018s1.114-4.234,2.452-5.795
		c1.337-1.559,1.337-3.565,1.56-5.571c0.223-2.006-0.668-2.229,0.892-4.012c1.56-1.783,2.229-1.783,5.349-2.006
		c3.12-0.223,4.903-0.669,10.697-0.669s8.469,0.446,13.595,0c5.126-0.445,10.698-1.337,14.264-2.451
		c3.565-1.114,7.131-2.451,11.143-3.565s6.24-2.229,8.692-2.897s3.789-0.892,6.017-0.892s5.126,0.669,5.126,0.669L104.473,242.7z"/>
	<path fill="#D1D3D4" d="M29.589,255.404c0,0,2.006,0,9.138-0.223c7.132-0.224,9.36-0.224,13.372,0
		c4.011,0.223,4.903,0.668,8.915,1.782s5.794,2.675,10.029,2.229c4.234-0.445,5.794-1.56,10.029-2.675
		c4.234-1.113,5.349-2.451,6.018-3.565s1.783-1.337,2.675-2.896c0.891-1.561,2.005-2.675,2.005-2.675l0.668-0.892l-3.12,0.445
		c0,0,0.223-1.113,2.229-1.337c2.006-0.223,2.897-0.223,4.457,0.224c1.56,0.445,1.114,1.56,2.897,0.891
		c1.783-0.668,2.452-0.445,4.011-2.229c1.561-1.783,1.561-1.783,2.897-2.896c1.337-1.114,1.56-2.675,3.789-3.121
		c2.229-0.445,3.12-0.445,6.018,0.892c2.897,1.338,4.68,2.675,10.252,4.681c5.571,2.006,8.469,3.343,14.709,4.234
		s10.697,1.56,16.938,1.56c6.24,0,8.691-0.223,10.92-0.891c2.229-0.669,3.566-0.669,6.017-0.224
		c2.452,0.446,3.343,1.338,3.789,3.566s1.114,7.354,0.223,9.806c-0.892,2.453-3.789,5.794-4.903,8.47
		c-1.114,2.674-2.006,6.686-2.452,9.805c-0.446,3.121-2.229,8.246-5.572,12.703c-3.343,4.457-10.252,12.703-13.372,19.391
		c-3.12,6.686-5.126,10.475-7.577,17.828c-2.452,7.355-3.789,9.361-6.24,20.059s-3.789,17.383-4.235,24.738
		c-0.445,7.354-1.337,14.486-1.783,21.617s-2.452,20.727-2.674,30.311c-0.223,9.582-0.446,27.857-0.891,36.771
		c-0.446,8.916-0.669,21.619-0.669,27.189c0,5.572-0.446,16.27-0.446,16.27h-2.674c0,0,0-22.955,0.892-43.682
		c0.891-20.727,1.783-34.098,3.12-53.486c1.337-19.391,3.789-43.236,5.349-54.604c1.56-11.365,6.686-24.516,8.469-29.641
		c1.783-5.127,8.023-15.602,10.252-19.836c2.229-4.234,9.583-10.697,12.257-15.377c2.675-4.68,2.675-7.131,2.675-8.691
		s-0.223-2.229-2.006,0.223s-3.343,2.896-4.458,4.68c-1.114,1.783-3.343,4.234-3.343,4.234s3.343-5.348,5.126-7.799
		c1.783-2.453,2.451-3.566,2.674-6.91c0.223-3.342-0.223-5.57-0.446-7.801c-0.223-2.229-0.223-3.342-0.223-3.342
		s1.337,4.457,1.561,6.908c0.223,2.451-0.669,3.789,0,4.68c0.668,0.893,0.446,2.898,2.006-0.668c1.56-3.566,2.005-5.348,3.343-7.131
		s3.12-4.457,4.012-6.687c0.892-2.229,1.114-5.349,0.668-7.131c-0.446-1.783-0.223-3.344-1.783-4.458
		c-1.56-1.114-1.56-2.006-4.457-1.337c-2.897,0.669-8.469,2.006-16.27,1.783c-7.8-0.223-14.709-1.783-19.389-3.12
		c-4.68-1.338-9.137-2.229-12.926-4.458c-3.789-2.229-6.686-3.565-8.469-3.788c-1.783-0.223-3.343-1.114-4.903,0.223
		c-1.561,1.337-3.343,3.12-4.458,4.234s-4.68,3.12-4.68,3.12s1.337,0.669,3.566,0.669s4.457,0.445,4.457,0.445s-4.68,0.669-6.686,0
		c-2.006-0.669-2.675-0.892-4.458-1.337c-1.783-0.446-1.783-0.892-2.674-0.446c-0.892,0.446-0.892,1.114-1.783,2.229
		c-0.892,1.114-2.006,2.896-3.789,4.457c-1.783,1.56-4.68,3.343-7.578,4.234c-2.897,0.892-5.349,3.12-9.583,2.897
		s-7.132-2.229-10.92-3.12c-3.789-0.893-5.572-1.337-9.583-1.561c-4.012-0.223-9.138,0-11.812,0s-9.806-0.445-9.806-0.445"/>
	<path fill="#D1D3D4" d="M128.096,249.832c0,0,8.246,4.681,13.817,5.35c5.572,0.668,9.36,0.668,12.926,0.445
		c3.566-0.223,13.818-1.783,16.046-2.006c2.229-0.223-15.824,1.337-20.058,1.337s-9.137-1.337-13.595-2.451
		C132.776,251.393,128.096,249.832,128.096,249.832z"/>
	<path fill="#D1D3D4" d="M139.908,259.639c0,0,1.114,2.229,5.794,2.451s6.686-0.445,8.691-1.114
		c2.006-0.668,7.355-2.229,7.355-2.229s-7.577,2.674-11.366,2.674s-7.578-0.668-7.578-0.668L139.908,259.639z"/>
	<path fill="#D1D3D4" d="M108.485,261.772c2.255,0.02,4.845-0.242,6.433,0.893c2.537,1.813,5.564,2.797,8.721,2.768
		c-4.479,0.619-8.066-2.221-12.145-2.956c-1.761-0.317-4.399,0.017-6.576,0.727C106.02,262.526,107.015,261.759,108.485,261.772z"/>
	<path fill="#D1D3D4" d="M130.832,263.363c1.082-0.418,1.708-1.773,3.059-1.496c-1.927,3.068-5.774,3.382-8.915,3.566
		C126.508,263.65,128.886,264.117,130.832,263.363z"/>
	<path fill="#D1D3D4" d="M102.178,265.839c0.371-0.627,1.561-0.248,1.403-1.297c-0.888,4.594-5.753,4.906-9.36,4.01
		C97.039,267.556,100.349,268.941,102.178,265.839z"/>
	<path fill="#D1D3D4" d="M128.252,321.195c-0.537,1.84-2.344,3.756-2.68,5.381c-2.066,9.982,0.716,19.295-2.591,28.82
		c-4.443,12.803-4.765,25.895-6.237,39.227c-0.417,3.771-1.252,8.096-1.611,11.746c-1.866,18.984-2.235,37.932-2.191,56.969
		c-0.73-26.34,1.963-52.545,3.168-78.893c0.656-14.338,4.525-26.969,7.436-41.473c0.237-1.18-1.3-1.193-1.625-1.098
		c-3.125,0.92-3.476,4.646-5.414,6.91c2.342-5.969,7.577-7.355,6.686-17.83c-3.296,0.561-4.709,3.781-7.284,5.039
		c-3.455,1.689-7.399,2.09-11.405,2.738c-2.387,0.385-3.606,3.441-3.824,4.811c-0.845,5.303-2.632,10.4-2.223,15.955
		c0.315,4.279-2.862,7.666-4.237,11.574c0.342-5.721,6.635-10.768,2.847-15.844c-0.11-0.146-1.066,1.574-2.401,1.135
		c5.852-2.977,3.806-9.912,5.969-15.082c0.352-0.842,1.401-1.705,2.166-2.064c3.256-1.529,7.075-1.736,10.452-2.867
		c4.324-1.445,8.376-5.814,10.57-9.68c4.496-7.922,2.844-15.107,4.533-18.154c2.228-4.021,4.69-7.232,5.535-12.326
		c0.019,0.77-0.237,1.91,0.48,2.047c2.181,0.418-0.613-2.908,1.748-2.939c-2.145,5.205-3.94,10.061-6.43,15.059
		C128.296,313.154,129.367,317.378,128.252,321.195z"/>
	<path fill="#D1D3D4" d="M74.327,339.396c-0.624-3.523-2.677-6.574-1.947-10.223c3.315,13.254,7.72,26.338,8.023,40.115
		C79.112,359.126,76.159,349.748,74.327,339.396z"/>
	<path fill="#D1D3D4" d="M90.725,324.285c-0.609,2.883-0.118,5.688-0.961,8.453c-0.279-8.008,0.731-18.783,8.914-22.287
		C95.036,314.498,91.917,318.648,90.725,324.285z"/>
	<path fill="#D1D3D4" d="M62.192,313.554c-0.654-2.318-1.828-4.346-2.293-6.668c0.796-0.107,1.613,0.09,1.688,0.9
		c0.323,3.492,1.678,7.104,4.998,8.459C65.083,315.47,63.162,316.99,62.192,313.554z"/>
	<path fill="#D1D3D4" d="M116.042,301.5c-0.704,0.355-1.275,0.787-1.764,1.375c-0.181-2.133,2.566-3.078,4.458-3.119
		C117.842,300.349,117.004,301.011,116.042,301.5z"/>
	<path fill="#D1D3D4" d="M41.73,279.712c0.069-0.453,0.5-1.037,1.231-0.908c-0.633,2.729,1.326,4.648,2.675,6.688
		C43.63,284.023,41.278,282.681,41.73,279.712z"/>
	<path fill="#D1D3D4" d="M38.603,279.595c0.599,0.582,1.306,0.904,1.238,1.885c-4.821-2.439-5.471-9.873-3.566-14.711
		C35.6,271.109,35.139,276.23,38.603,279.595z"/>
	<path fill="#D1D3D4" d="M54.918,300.261c1.381,1.732,3.256,1.887,4.981,2.613c-3.077,0.068-5.551-2.008-7.513-4.1
		c-0.945-1.008-1.6-2.191-2.739-3.479C52.219,296.072,53.369,298.32,54.918,300.261z"/>
	<path fill="#D1D3D4" d="M30.165,300.81c2.921,1.344,5.327,5.566,2.99,8.305c0.223-2.83-0.453-7.373-4.01-7.348
		c-1.544,0.012-1.909,2.053-2.676,3.336c-0.178-4.711,3.884-9.098-0.653-12.662c-1.218-0.959-2.716-1.799-4.134-2.68
		c-1.656-1.029,0.736-3.137-0.562-4.717c-3.122-3.799-6.357-0.107-9.36,1.338c4.415-4.73,4.357-11.201,2.229-16.938
		c3.493,3.959,0.217,9.768,3.103,13.484c0.697,0.898,4.213-0.027,4.524,1.74c0.71,4.023,2.966,6.109,6.085,8.115
		C30.73,294.732,26.979,299.343,30.165,300.81z"/>
	<path fill="#D1D3D4" d="M39.939,319.408c-0.966,2.252-1.18,4.738-1.881,7.09c0-2.08-0.492-4.346,0.246-6.139
		c1.333-3.24,3.1-7.062,0.632-10.344c-0.609-0.811-1.691,0.793-2.215-0.455c0.892,0,2.01-0.301,2.548,0.15
		C42.125,312.105,41.296,316.25,39.939,319.408z"/>
	<path fill="#D1D3D4" d="M89.095,410.519c0,0,1.783,26.074,2.229,33.652c0.446,7.576,1.114,14.709,1.114,18.498
		s2.229,32.537,2.229,32.537s-2.229-47.693-2.674-53.264C91.546,436.371,89.095,410.519,89.095,410.519z"/>
	<path fill="#D1D3D4" d="M22.124,264.765c0,0-1.114,0.334-3.008-0.781c-1.895-1.113-2.786-2.117-5.015-1.783s-3.9,0.892-5.015,2.341
		c-1.114,1.447-0.557,5.459-1.337,7.131c-0.78,1.672-3.231,2.117-4.346,4.568c-1.114,2.451-1.671,4.791-1.114,7.689
		c0.557,2.896,1.449,3.008,0.78,5.795c-0.668,2.785-2.229,4.346-2.563,7.242c-0.334,2.898-1.002,6.129,0.112,8.58
		s5.014,7.133,7.131,10.029c2.117,2.898,3.455,7.244,4.234,12.035c0.78,4.791,1.672,12.814,2.118,24.293
		c0.445,11.477,0.78,55.27,0.78,64.408c0,9.137-0.668,24.068-0.668,30.086s-0.446,26.299-0.446,32.984s0,27.857,0,27.857h0.668
		c0,0,0.446-27.412,0.446-36.326c0-8.916,0.223-23.848,0.668-33.207c0.446-9.361,0.892-39.002,0.669-49.031
		c-0.223-10.029,0-31.201-0.223-39.893c-0.223-8.691-0.892-18.498-2.229-24.516c-1.337-6.018-3.566-10.027-6.24-12.703
		C4.852,308.892,2.4,308,1.955,305.103c-0.446-2.896-0.892-5.795-0.223-7.801s2.452-4.012,2.897-6.018
		c0.446-2.006,0.669-4.68,0-6.24c-0.668-1.559-1.56-2.229-0.891-4.234c0.668-2.006,1.337-2.896,2.897-5.125s2.452-2.451,2.675-4.457
		c0.223-2.006-0.669-2.676,0.223-4.682c0.891-2.004,0.891-2.896,2.674-3.342s1.56-1.115,3.566-0.223
		c2.006,0.891,2.674,1.561,3.565,1.783C20.229,264.988,22.124,264.765,22.124,264.765z"/>
	<path fill="#D1D3D4" d="M52.322,315.578c0,0-2.452,5.125-4.457,16.715c-2.006,11.59-5.126,24.516-5.795,33.652
		c-0.668,9.139-5.126,36.773-5.349,45.91c-0.223,9.139-1.783,30.311-2.229,41.008s-1.56,45.688-1.56,45.688l2.452-50.145
		c0,0,0.891-23.178,1.783-30.979s2.229-18.498,2.452-20.949c0.223-2.451,1.114-6.24,1.114-6.24s-1.337,29.641-1.56,36.996
		c-0.223,7.354-0.892,23.4-0.668,29.641c0.223,6.24,0.223,25.852,0.445,32.984c0.223,7.131,0.669,17.383,0.669,17.383h1.114
		c0,0-0.668-24.516-0.892-39.002c-0.223-14.484-0.223-28.971,0.223-38.332c0.446-9.359,0.892-22.287,1.337-27.635
		c0.446-5.35,0.892-27.189,2.452-34.545c1.56-7.354,3.343-20.727,4.458-26.967c1.114-6.24,3.343-16.492,4.011-17.828
		c0.669-1.338,1.783-1.561,3.12,1.113S52.322,315.578,52.322,315.578z"/>
	<path fill="#D1D3D4" d="M37.613,330.064c0,0-1.115,2.229-0.669,6.908c0.446,4.682,0.223,10.922,0.223,10.922
		s0.446-9.361,0.446-11.812S37.613,330.064,37.613,330.064z"/>
	<g>
		<path fill="#414142" d="M361.214,0h63.517c0,0,3.343,12.035,5.126,19.835s6.909,29.641,9.137,37.888
			c2.229,8.246,10.476,44.35,12.927,54.825c2.451,10.475,8.246,30.31,10.252,35.213c2.006,4.903,7.577,16.714,8.915,19.612
			c1.337,2.897,3.788,6.909,4.902,9.36c1.114,2.451,2.452,7.131,2.452,7.131l2.006-0.668c0,0,0.223-5.348,0.891-9.806
			c0.669-4.458,1.783-8.692,1.783-12.704c0-4.011,0-10.475,0-15.824c0-5.348-0.669-11.588-0.669-14.708c0-3.121,0-4.458,1.338-5.572
			c1.337-1.114,3.12-2.229,4.902-0.669c1.783,1.561,4.458,3.343,6.018,7.132s4.681,14.709,6.909,20.058
			c2.229,5.349,4.68,11.812,5.794,15.823c1.115,4.012,2.229,11.589,1.783,14.932c-0.445,3.343-1.114,9.36-2.006,12.703
			c-0.892,3.344-2.006,6.687-3.565,8.915c-1.561,2.229-2.229,4.235-4.681,4.68c-2.451,0.446-5.349,0.223-6.909-2.897
			c-1.56-3.12-2.228-4.68-3.788-6.463c-1.561-1.782-2.897-2.451-4.457-4.68c-1.561-2.228-3.12-6.24-3.12-6.24v-2.229l-2.452,1.115
			c0,0-0.223,5.572-1.783,10.252c-1.56,4.68-3.565,9.36-6.462,13.594c-2.898,4.235-4.012,6.909-7.355,8.692
			c-3.343,1.783-10.029,6.909-10.029,6.909l-7.354,4.68l-2.007,1.56c0,0,3.121,0.446,5.35,1.561s5.794,3.343,7.8,4.012
			s3.12,0.892,4.012,2.229c0.892,1.338,2.897,4.234,2.897,4.234s2.229,0.669,4.234,1.114c2.006,0.446,4.012,1.114,4.68,1.114
			c0.669,0,2.229,1.783,2.675,3.566c0.446,1.782,1.337,3.565,1.337,8.022c0,4.458-0.223,8.468-1.114,11.367
			c-0.891,2.896-2.674,6.24-3.789,8.914c-1.113,2.674-2.005,4.682-2.896,9.361s-0.446,10.475-1.114,12.48
			c-0.669,2.006-1.783,4.902-2.897,8.023c-1.114,3.119-3.12,8.021-3.12,8.021s-1.114,4.012-1.337,8.246
			c-0.223,4.236,0.892,8.023-0.669,15.379c-1.561,7.354-1.783,14.039-3.343,20.057c-1.561,6.018-6.018,18.945-7.354,24.07
			c-1.338,5.125-4.903,18.721-6.241,26.521c-1.336,7.801-5.349,27.635-6.908,39.893s-2.451,18.943-2.897,26.744
			c-0.445,7.801-2.451,29.863-2.451,29.863h-44.351c0,0-0.668-28.973-1.783-38.777c-1.113-9.807-2.451-23.402-3.343-32.316
			s-1.56-16.938-2.451-21.84c-0.892-4.904-2.229-12.703-2.229-12.703l-1.783-4.012c0,0-2.229,15.377-2.674,21.617
			c-0.446,6.24-1.115,15.824-1.115,22.51s0.224,12.926,0.224,18.943s0.223,15.822,0.445,21.172s0.892,14.709,0.892,14.709
			l0.892,10.697h-19.39c0,0,0-10.475-0.223-16.27c-0.223-5.793-0.669-20.725-0.892-29.418c-0.223-8.691-0.892-20.949-0.892-27.412
			s0.446-13.594,0-20.949c-0.445-7.354-0.445-17.383-1.114-23.623s-1.114-17.385-2.229-25.186
			c-1.114-7.799-2.897-17.16-4.012-20.947c-1.114-3.789-3.789-8.023-4.681-10.477c-0.891-2.451-1.336-5.348-1.113-7.799
			s0.445-3.344-0.446-6.463c-0.892-3.121-3.565-6.018-4.011-9.139c-0.446-3.119-1.338-9.805,0-13.148
			c1.336-3.344,2.005-6.686,4.68-9.584c2.674-2.896,5.349-6.24,5.795-7.576c0.445-1.338,0.445-5.572-0.446-7.801
			s-2.897-4.012-3.789-6.463c-0.891-2.453-2.005-4.235-1.113-6.241c0.891-2.006,2.005-3.789,3.565-4.681
			c1.56-0.891,2.674-1.114,2.896-3.119c0.224-2.006-0.891-3.121,0.892-4.903c1.783-1.783,2.675-2.229,5.572-2.897
			c2.896-0.669,8.022-1.114,10.252-2.006c2.228-0.892,7.577-3.343,7.577-3.343s-4.012-0.224-8.246-2.229
			c-4.234-2.006-10.475-4.234-16.047-8.691c-5.571-4.458-10.028-8.024-13.148-13.373s-5.795-8.469-6.687-14.932
			c-0.891-6.463-1.113-9.806,0-14.041c1.114-4.234,2.006-8.246,3.566-10.475c1.56-2.228,6.686-5.348,9.36-7.131
			c2.674-1.783,7.354-4.011,10.92-7.578c3.566-3.565,8.246-7.8,12.035-13.149c3.788-5.349,6.909-9.137,8.469-15.6
			c1.561-6.463,3.12-16.493,3.12-24.738c0-8.246-0.223-15.155-0.892-22.063c-0.668-6.909-1.114-11.812-1.783-18.721
			c-0.668-6.909-1.337-15.824-2.451-23.847c-1.114-8.023-2.229-14.263-2.897-19.612S361.214,0,361.214,0z"/>
		<path fill="#414142" d="M22.012,264.988c0,0-2.897-0.67-4.458-1.561c-1.56-0.892-2.674-1.56-4.234-0.892
			c-1.56,0.669-4.011,1.783-4.234,2.898c-0.223,1.113-0.223,4.234-0.446,5.35c-0.223,1.113-2.674,4.457-3.566,5.348
			c-0.891,0.891-2.006,3.344-2.229,4.902c-0.223,1.561,1.56,5.127,1.337,6.91c-0.223,1.783-2.006,6.24-2.229,7.354
			c-0.223,1.115-2.006,5.35-1.337,7.133c0.668,1.783,1.114,4.68,2.674,6.463s5.349,4.457,6.686,7.801
			c1.337,3.342,3.566,13.371,4.234,21.172c0.668,7.799,0.668,25.406,0.891,29.863c0.223,4.457,0.446,33.43,0.446,39.447
			s0,23.178-0.446,26.299c-0.446,3.119-0.446,23.178-0.668,26.967s-0.223,29.863-0.223,33.43s-0.223,13.371-0.223,13.371h26.298
			c0,0-0.446-22.285-0.892-32.984c-0.446-10.697-0.223-20.502-0.223-27.635c0-7.131,0.668-20.281,0.892-27.635
			c0.223-7.355,1.114-21.842,1.114-27.859s0.892-13.148,1.783-21.172s3.12-20.281,3.789-24.738
			c0.669-4.457,2.897-18.943,4.234-21.617c1.337-2.674,3.789-5.572,5.795-0.668c2.005,4.902,7.131,20.057,8.469,28.525
			s4.458,34.768,4.903,41.898c0.445,7.133,2.674,39.67,3.12,44.797c0.446,5.125,0.892,21.617,1.115,28.08
			c0.223,6.465,0.668,21.842,0.668,26.299s0,14.709,0,14.709h51.482c0,0,0.223-28.525,0.668-38.777s1.115-34.99,2.006-47.248
			c0.892-12.258,2.897-32.316,3.566-41.898c0.669-9.584,4.012-29.195,6.686-37.219s8.246-24.516,10.029-27.857
			c1.783-3.344,9.361-13.818,12.704-18.275c3.343-4.459,6.463-10.029,7.354-14.041c0.892-4.012,1.337-6.686,2.452-9.807
			c1.114-3.119,4.011-6.463,5.126-9.806c1.114-3.343,1.337-8.246,0.223-10.252c-1.114-2.005-2.006-2.674-3.343-2.896
			c-1.337-0.223-2.451-0.446-5.348,0.223c-2.898,0.669-6.463,1.337-12.035,1.114s-8.915-0.892-12.926-1.337
			c-4.012-0.446-10.697-1.783-14.264-3.343c-3.565-1.561-6.24-2.006-8.915-3.566c-2.674-1.56-6.463-2.897-8.023-3.12
			s-3.12-0.445-4.012,0.446s-3.566,3.565-3.566,3.565s-3.12-0.223-6.017-0.669c-2.897-0.445-4.903-1.56-8.023-0.223
			c-3.12,1.337-8.469,2.897-14.932,5.126c-6.463,2.229-12.257,3.12-16.046,3.566c-3.789,0.445-11.812,0.668-16.046,0.668
			s-10.475,0.223-12.48,0.669c-2.006,0.445-4.458,0.668-5.572,1.56s-1.337,1.783-1.56,3.12s0,2.675-0.445,4.235
			C23.35,262.759,22.012,264.988,22.012,264.988z"/>
		<path fill="#D1D3D4" d="M426.067,0c0,0,10.029,39.893,12.034,50.145c2.007,10.252,8.469,34.544,11.144,45.464
			s8.246,35.658,10.698,42.345c2.451,6.686,10.92,26.521,12.926,30.31c2.006,3.789,6.24,9.583,6.909,12.926
			s-0.446,15.155-2.452,19.167c-2.005,4.011-8.022,14.486-14.04,19.389c-6.018,4.903-18.052,12.035-18.052,12.035
			s3.788,0.224,5.794,1.783s2.675,1.56,4.903,2.675c2.229,1.113,2.451,1.336,3.789,2.005c1.337,0.669,2.451,2.229,2.896,3.344
			c0.446,1.113,1.561,2.229,1.561,2.229s2.229,0.223,4.457,1.114s4.012-0.892,5.126,0.892c1.114,1.782,3.565,6.017,3.343,12.257
			c-0.223,6.24-0.669,11.812-2.674,16.269c-2.006,4.457-2.897,5.35-4.234,10.475c-1.338,5.127-1.338,6.018-1.561,10.697
			s-0.892,8.023-2.674,11.59c-1.783,3.566-3.121,4.68-3.789,8.023c-0.669,3.344-0.446,3.119-0.892,10.029
			c-0.445,6.908-0.892,19.611-2.451,27.189c-1.561,7.576-5.572,19.834-8.023,27.635c-2.452,7.801-8.246,30.756-9.138,39.67
			s-5.126,30.533-5.794,36.773c-0.669,6.24-3.566,26.967-3.789,34.32c-0.223,7.355-1.114,16.492-1.114,16.492h-1.783
			c0,0,1.561-23.623,3.789-46.133s5.349-34.543,7.354-45.91c2.005-11.367,7.354-32.984,8.914-37.441
			c1.561-4.457,5.35-14.264,6.464-22.064c1.113-7.799,2.229-14.932,2.229-20.057c0-5.127-0.669-8.023-0.446-9.807
			s-1.114-3.789-3.788,1.115c-2.675,4.902-5.126,9.582-5.572,14.932c-0.445,5.348-0.445,7.354-1.561,12.926
			c-1.113,5.572-2.451,8.469-4.457,12.48c-2.005,4.012-2.229,4.457-3.343,8.246s-1.337,5.572-1.783,8.469
			c-0.445,2.896-1.113,6.463-2.451,9.137c-1.337,2.676,1.114-5.793,1.783-11.143c0.668-5.35,3.343-12.926,5.126-16.047
			c1.782-3.119,3.565-8.021,4.234-13.148c0.669-5.125,1.337-11.59,2.006-15.824c0.668-4.234,2.675-8.914,4.68-11.143
			c2.006-2.229,3.789-4.012,6.687-8.469c2.896-4.457,3.12-5.572,5.349-10.252s1.782-9.807,1.782-12.926
			c0-3.121-0.222-6.24,1.338-10.475s2.897-6.463,4.903-10.029s2.451-5.127,2.897-9.807c0.445-4.68-0.446-7.131-0.892-10.697
			c-0.446-3.566-0.892-4.903-2.229-5.572c-1.337-0.669-2.451-0.892-4.68-0.892s-4.681-1.56-5.572,0.892
			c-0.891,2.452-0.891,3.566-1.56,5.349c-0.668,1.783-1.114,2.897-1.337,4.234c-0.223,1.338-0.446,3.789-0.446,3.789
			s-0.892-2.897-0.445-6.463c0.445-3.565,0.669-5.571,1.561-7.132c0.891-1.56,2.451-2.451,1.337-4.681
			c-1.114-2.228-1.114-3.119-2.452-3.119c-1.337,0-2.006-0.669-4.68-1.783s-2.674-2.006-5.572-2.675
			c-2.896-0.668-4.68-0.892-6.908-0.668c-2.229,0.223-2.675,0.223-6.24,0.892c-3.565,0.668-16.27,3.565-20.949,3.788
			c-4.681,0.223-14.71,1.114-20.949,0.669c-6.24-0.446-6.018-1.783-9.584,0c-3.565,1.783-2.451,2.674-6.017,3.565
			c-3.566,0.892-4.903,1.783-6.909,1.338c-2.006-0.446-3.789-1.561-3.789-1.561s1.56,0.892,4.458,0.445
			c2.896-0.445,3.788-0.445,6.463-1.783c2.674-1.336,1.56-1.56,4.903-2.674c3.343-1.114,2.896-1.561,7.131-1.337
			c4.234,0.223,14.041,0.445,22.955-0.892c8.915-1.337,11.144-1.56,15.378-2.451s6.464-1.561,9.583-2.007
			c3.121-0.444,5.126-0.891,5.126-0.891s4.012-2.897,7.801-4.903s10.475-6.463,15.155-12.258c4.68-5.794,9.583-15.155,10.474-19.835
			c0.892-4.68,1.114-10.029,0.446-12.703c-0.669-2.675-3.343-6.24-6.018-12.035c-2.674-5.794-9.36-20.281-12.703-30.087
			c-3.343-9.806-6.686-23.623-10.698-40.115c-4.011-16.492-9.583-40.116-12.257-51.705c-2.675-11.589-6.24-25.406-7.578-31.87
			C426.291,9.583,423.616,0,423.616,0H426.067z"/>
		<path fill="#D1D3D4" d="M361.882,0c0,0,3.789,18.498,5.126,28.304c1.338,9.806,2.229,22.063,3.343,32.315
			c1.115,10.252,3.344,27.858,3.789,40.116s-1.782,22.732-3.12,28.527c-1.337,5.794-4.68,12.257-7.8,16.492
			c-3.121,4.234-8.692,10.475-11.366,12.927c-2.675,2.451-4.457,4.011-5.349,5.348c-0.892,1.337-2.006,1.783-1.561,2.675
			s1.783,0,2.675,2.451c0.892,2.452,1.56,5.794,0.668,8.915c-0.891,3.12-1.337,8.692-0.891,12.035
			c0.445,3.343,1.56,7.801,5.125,12.258c3.566,4.457,10.252,10.251,12.927,11.366c2.675,1.115,5.126,2.452,8.914,3.343
			c3.789,0.892,6.018,0.892,7.801,1.337c1.782,0.445,0.446,0.445,3.789,3.12s4.68,4.012,8.914,5.572
			c4.234,1.56,6.24,3.343,11.144,3.565s7.354-0.223,11.144-1.337c3.788-1.115,6.017-1.561,9.138-1.561
			c3.119,0,7.131,0.892,10.251,0.669c3.12-0.224,6.018-0.224,9.36-1.783s5.795-3.566,9.36-6.463c3.566-2.897,6.24-5.349,8.023-8.246
			s3.788-4.457,4.903-6.018c1.114-1.56,2.674-4.234,2.674-4.234s-6.018,9.806-8.469,12.48c-2.451,2.675-6.463,6.687-9.807,9.138
			c-3.343,2.451-7.577,6.24-11.588,6.24c-4.013,0-10.029-0.223-13.596,0.223c-3.565,0.446-8.022,0.892-10.474,2.006
			c-2.452,1.114-6.464,1.783-12.259,0.668c-5.794-1.113-7.8-2.005-11.812-4.011s-6.24-4.012-9.36-6.018s-1.56-2.897-6.686-3.12
			s-7.801-1.337-9.807-2.451s-6.24-2.897-10.92-7.578c-4.681-4.68-6.909-7.354-8.691-12.257c-1.783-4.903-2.675-11.144-2.007-14.041
			c0.669-2.898,2.007-5.572,1.338-8.247c-0.669-2.674,0.223-4.457-2.229-5.349c-2.452-0.891-4.012-1.56-6.24-0.891
			c-2.229,0.668-3.344,1.114-5.349,2.674c-2.007,1.561-2.229,1.561-3.344,4.234c-1.114,2.675-4.012,6.687-3.789,12.258
			c0.224,5.571-0.445,11.812,2.898,18.052c3.343,6.24,8.914,15.155,15.601,19.39c6.686,4.234,14.04,9.137,21.172,10.475
			c7.132,1.337,14.709,2.451,16.938,2.451s6.909,0.445,6.909,0.445s-7.132,0.892-8.246,2.229c-1.114,1.337-3.343,2.674-3.343,2.674
			s-1.114,0.223-3.789-1.114s-2.006-1.56-4.458-2.451c-2.451-0.892-4.011-1.561-8.245-3.12c-4.234-1.561-4.903-1.114-12.48-5.795
			c-7.578-4.68-15.155-12.035-18.275-18.052s-7.132-14.486-6.463-22.286c0.669-7.8,2.674-14.264,4.457-16.938
			s3.789-5.125,6.909-6.686c3.12-1.56,7.577-3.789,11.366-6.909c3.788-3.12,9.137-7.131,12.257-12.035
			c3.121-4.903,7.355-9.36,9.139-15.824c1.782-6.463,2.674-8.915,3.565-18.943s0.223-17.606,0-24.961s-1.114-17.606-2.006-23.847
			s-2.006-16.27-2.675-24.738c-0.668-8.469-2.229-15.823-3.119-21.841c-0.892-6.017-2.229-12.48-2.675-14.486
			C360.768,1.337,360.545,0,360.545,0H361.882z"/>
		<path fill="#D1D3D4" d="M351.407,166.48c0,0,6.909-4.011,10.252-8.246c3.343-4.235,6.24-7.132,7.8-10.029
			c1.561-2.898,2.229-4.903,3.79-8.692c1.56-3.789-5.795,13.818-8.247,16.269c-2.451,2.452-4.457,5.126-6.018,6.24
			C357.425,163.138,351.407,166.48,351.407,166.48z"/>
		<path fill="#D1D3D4" d="M348.064,173.39c0,0,5.349-3.789,7.354-5.794c2.006-2.006,5.349-4.903,5.349-4.903
			s-4.68,5.126-6.686,7.131c-2.006,2.006-5.795,5.349-5.795,5.349L348.064,173.39z"/>
		<path fill="#D1D3D4" d="M379.488,185.647c-0.669-4.457-0.892-6.463,0.892-9.137c1.783-2.675,1.561-1.783,3.789-4.68
			c2.229-2.897,3.12-5.349,4.011-6.241c0.892-0.891-2.896,6.909-4.457,8.692c-1.56,1.783-3.12,3.121-3.565,4.903
			c-0.446,1.783-0.446,7.132-0.446,7.132"/>
		<path fill="#D1D3D4" d="M384.614,165.366c0,0,6.909-10.252,8.47-15.824c1.56-5.571,2.896-9.806,3.119-19.834
			c0.224-10.029,0-23.178-0.445-29.864s-2.451-18.275-3.343-24.961s4.234,26.521,4.457,35.213s1.114,18.498,0.446,23.624
			c-0.669,5.126-1.561,11.143-2.675,14.486c-1.114,3.343-2.675,5.571-4.012,8.469C389.295,159.572,384.614,165.366,384.614,165.366z
			"/>
		<path fill="#D1D3D4" d="M420.941,49.922c3.12,14.709,8.915,36.773,11.366,49.477c2.452,12.703,4.68,26.298,5.794,33.43
			c1.115,7.131,2.675,12.034,5.35,15.378c2.675,3.343,4.902,4.903,6.463,6.24c1.561,1.337,2.229,2.229,2.674,4.903
			c0.446,2.675,0.669,4.012,0.669,5.349c0,1.337-0.892,1.337-0.223,3.12s1.114,2.005,2.006,3.343s1.114,2.006,0.669,3.789
			c-0.446,1.783-1.114,3.789-0.892,4.68s0-2.897,0-4.903c0-2.005,0.223-2.451-1.114-4.457c-1.338-2.006-2.006-1.783-1.783-4.681
			c0.223-2.897,1.337-2.674-0.223-5.349c-1.561-2.674-1.337-2.451-3.344-3.789c-2.005-1.337-4.457-2.674-6.24-6.909
			c-1.782-4.234-4.012-8.915-5.348-16.269c-1.338-7.355-2.452-14.041-3.789-22.732c-1.337-8.692-1.783-11.589-3.566-20.504
			c-1.783-8.915-3.343-14.932-5.126-23.624C422.502,57.723,420.941,49.922,420.941,49.922z"/>
		<path fill="#D1D3D4" d="M444.911,208.76c-0.98,1.514-2.59,2.113-4.357,2.293c-0.026-0.639-0.112-1.494,0.479-1.667
			c4.893-1.426,5.827-7.192,8.436-10.814C449.414,202.614,447.023,205.499,444.911,208.76z"/>
		<path fill="#D1D3D4" d="M451.729,178.517c0.104-1.97-0.242-3.87-0.478-5.796c1.477,3.908,0.385,8.186,4.902,10.252
			c-0.447-0.15-0.985-0.496-1.287-0.346c-0.302,0.151-0.347,0.79-0.496,1.236C452.387,183.087,451.623,180.553,451.729,178.517z"/>
		<path fill="#D1D3D4" d="M455.263,187.876c1.485,1.519-0.272,2.677-0.445,4.012C454.879,190.54,454.574,189.153,455.263,187.876z"
			/>
		<path fill="#D1D3D4" d="M380.284,194.565c0.009,0.222,0.152,1.265-0.099,0.762c-0.667-1.334-0.729-3.706,1.086-4.777
			C380.781,191.845,380.227,193.072,380.284,194.565z"/>
		<path fill="#D1D3D4" d="M380.332,165.61c0.298,0.689-0.458,0.663-0.844,0.87c0.587-0.978,0.433-2.06,0.446-3.12
			C381.064,163.907,380.008,164.862,380.332,165.61z"/>
		<path fill="#D1D3D4" d="M490.626,146.889c0.483,7.011,5.671,12.908,5.467,19.573c-0.038,1.219,0.758,1.776,0.507,3.118
			c-0.622,3.331-0.847,6.633-3.004,9.382c1.703-5.675,2.889-11.462,1.172-17.335c-0.533-1.827-2.108-3.304-2.721-5.034
			c-1.963-5.548-2.086-11.309-3.181-17.251c-0.631-3.42-3.479-5.918-4.185-9.41C488.938,134.643,490.21,140.86,490.626,146.889z"/>
		<path fill="#D1D3D4" d="M492.975,188.708c-0.543,1.596-1.631,3.435-3.818,3.075c-0.458-0.076-1.04-0.502-0.909-1.232
			c4.263,0.764,4.549-4.527,5.349-7.577C493.865,184.937,493.581,186.928,492.975,188.708z"/>
		<path fill="#D1D3D4" d="M498.202,190.675c-0.314,0.376-0.644,0.832-1.041,1.212c3.194-5.769,4.253-11.694,3.566-18.275
			C499.58,179.253,503.273,184.631,498.202,190.675z"/>
		<path fill="#D1D3D4" d="M499.368,201.225c-0.238,0.223-0.572,0.32-0.869,0.469c0.591-1.8,1.593-3.312,3.12-4.457
			C500.606,198.423,500.543,200.123,499.368,201.225z"/>
		<path fill="#D1D3D4" d="M509.81,172.052c-1.114-6.463-4.402-12.258-5.739-16.715c-1.337-4.458-4.234-11.589-5.349-15.378
			c-1.114-3.789-2.675-9.137-5.126-12.035c-2.452-2.897-3.788-5.349-6.24-4.903c-2.451,0.446-4.234,0.223-4.903,3.12
			c-0.669,2.897-0.892,5.795-0.223,9.36c0.669,3.566,0.223,6.909,0.223,14.486c0,7.578,0.224,10.252-0.445,14.932
			s-0.892,4.903-1.337,9.806c-0.446,4.903-2.675,10.029-0.446,14.709s2.229,5.349,4.458,7.132c2.229,1.782,2.896,2.005,4.011,4.234
			c1.115,2.229,2.229,6.241,4.458,8.023c2.228,1.783,6.463,1.337,8.245-0.669c1.783-2.005,5.572-8.023,6.464-11.588
			c0.892-3.566,1.114-11.367,2.229-13.15c1.114-1.782,0.668-6.017,0.668-7.354S509.81,172.052,509.81,172.052l-1.95,0.056
			c0,0,0.223,0.613,0.223,3.956s0,6.24-0.669,9.806c-0.668,3.565-0.892,4.68-1.56,8.246c-0.669,3.566-0.669,4.903-1.783,6.686
			c-1.114,1.783-1.114,3.343-2.897,4.681c-1.782,1.337-2.674,2.897-4.457,2.229c-1.782-0.668-2.897-0.223-4.012-2.897
			c-1.114-2.674-0.892-4.234-3.12-6.24c-2.229-2.005-3.12-2.229-5.126-4.903c-2.006-2.674-2.675-3.12-3.12-8.246
			s-0.223-7.577,0.669-12.703s2.006-8.915,1.783-14.486c-0.224-5.572,0.445-12.258,0-16.046c-0.446-3.789-0.669-7.8-0.669-10.698
			c0-2.897-0.445-4.68,0.669-6.24s1.337-2.452,3.343-1.337c2.006,1.115,3.788,1.561,4.902,4.012
			c1.115,2.452,2.007,2.452,3.121,7.354c1.113,4.903,2.229,6.463,3.343,10.698s3.788,10.252,5.126,12.926
			c1.337,2.674,1.337,4.903,2.451,7.132c1.114,2.229,1.783,6.073,1.783,6.073L509.81,172.052z"/>
		<path fill="#D1D3D4" d="M372.798,249.404c1.042,0.314,2.225-0.698,3.125,0.428c-5.419,0.36-10.665,2.524-15.601-0.891
			c-1.195,1.851-2.299-0.101-3.518,0.199c-1.587,0.39-3.101,1.395-4.06,2.92c1.744-9.265,11.64-0.665,17.343-1.96
			C370.988,249.896,371.715,249.079,372.798,249.404z"/>
		<path fill="#D1D3D4" d="M393.731,248.377c-2.696,0.468-5.362-0.218-8.003,0.564c9.646-4.809,20.748,0.29,30.491-5.017
			c1.841-1.002,5.989-1.045,6.505,2.342c-1.757-1.199-4.614-2.185-5.461-1.675C409.68,249.163,401.856,246.968,393.731,248.377z"/>
		<path fill="#D1D3D4" d="M430.76,241.749c1.419,0.284,1.877,0.984,1.771,2.289c-1.76-1.897-5.909-0.875-5.349,2.229
			c-0.708-0.76-1.534-1.918-1.118-2.524C427.018,242.349,428.573,241.311,430.76,241.749z"/>
		<path fill="#D1D3D4" d="M437.024,242.748c-0.419,0.321-0.706,1.166-0.887,1.122c-1.842-0.458,0.295-2.89,1.394-3.713
			c1.493-1.118,4.016-0.941,5.251,0.761c1.526-1.33,2.055-3.463,4.457-1.783c-2.363,0.136-4.124,2.927-6.852,1.708
			C439.726,240.546,438.172,241.867,437.024,242.748z"/>
		<path fill="#D1D3D4" d="M438.321,255.172c1.756-0.771,3.567-0.313,5.353-0.437c-5.511,0.908-9.539,3.938-12.48,8.469
			C431.65,259.333,434.917,256.671,438.321,255.172z"/>
		<path fill="#D1D3D4" d="M424.953,259.193c-4.536,0.646-8.943,3.062-10.252,7.576c-1.453-1.934,0.924-5.171,2.832-6.451
			c3.79-2.54,8.182-2.25,12.323-0.68C428.187,259.875,426.656,258.951,424.953,259.193z"/>
		<path fill="#D1D3D4" d="M402.637,258.456c-4.635-0.897-9.047,0.747-11.559,4.749c-0.435-5.402,6.467-6.336,10.688-5.738
			c6.459,0.916,7.726,7.13,8.923,12.423C407.431,265.964,408.842,259.658,402.637,258.456z"/>
		<path fill="#D1D3D4" d="M385.99,266.56c-2.479,2.17-4.197,4.742-6.502,6.896c0.356-4.523,6.023-10.447,9.783-7.439
			C390.219,266.777,387.274,265.437,385.99,266.56z"/>
		<path fill="#D1D3D4" d="M432.09,292.625c-1.178,5.998-4.85,10.17-7.742,15.314c-0.606,1.078-0.298,2.975-0.924,4.197
			c-2.073,4.053-5.383,8.68-10.506,7.676c4.667-0.697,8.078-4.746,9.92-8.627c0.805-1.695,2.228-4.043-0.559-5.191
			c0.898-0.775,2.313-0.064,3.157-1.311c5.391-7.965,6.514-16.996,12.889-23.65C436.795,285.195,433.007,287.945,432.09,292.625z"/>
		<path fill="#D1D3D4" d="M404.333,336.732c0.866-5.797,4.351-11.012,9.031-14.246c-11.978,13.062-11.566,31.223-16.028,47.818
			c-0.875,3.256-0.238,7.143-0.23,10.574c0.03,12.438-1.811,24.842-2.462,37.439c0.48-11.709,0.11-23.361,1.897-35.328
			c0.357-2.389-0.948-6.113-0.844-8.775c0.102-2.588-0.393-5.871,0.993-8.344c2.235-3.992,2.521-8.26,3.58-12.342
			C401.7,348.009,403.453,342.611,404.333,336.732z"/>
		<path fill="#D1D3D4" d="M352.336,300.617c-2.68-3.566-1.293-7.641-0.037-11.113c-1.216,4.512-0.763,8.367,1.783,12.479
			C353.074,302.085,352.798,301.232,352.336,300.617z"/>
		<path fill="#D1D3D4" d="M347.13,318.773c0.279,0.34,1.034,0.686,1.604,1.039c-4.991-1.188-7.871-8.203-6.24-12.926
			C341.687,311.492,344.303,315.335,347.13,318.773z"/>
		<path fill="#D1D3D4" d="M351.196,324.259c0.045-0.949-0.222-2.051-0.234-3.109c2.061,3.904,0.618,11.648,7.132,10.697
			c-0.524,1.246-1.619,0.207-2.222,0.189C352.045,331.923,351.026,327.796,351.196,324.259z"/>
		<path fill="#D1D3D4" d="M356.8,344.771c0.11,1.672-2.84,4.287,0.332,4.033c2.501-0.201,1.053-5.406,1.853-8.488
			c0.168,1.781,0.96,3.635,0.303,5.293c-2.208,5.57-2.365,10.766-1.64,16.549c-3.089-2.475-0.81-5.928-1.629-8.957
			c-0.246-0.908,0.694-1.762,1.102-2.67c0.434-0.969-0.884-1.35-0.982-1.805c-1.005-4.6,0.636-9.08-1.61-13.312
			C357.537,337.728,356.584,341.484,356.8,344.771z"/>
		<path fill="#D1D3D4" d="M346.481,288.169c0.18,0.977-0.425,1.363-0.694,0.393c-0.569-2.045-0.217-4.598,1.609-6.191
			C346.951,284.279,346.089,286.041,346.481,288.169z"/>
		<path fill="#D1D3D4" d="M367.454,237.574c0,0-3.789,2.229-7.132,2.898c-3.343,0.668-9.583,1.336-11.812,2.674
			c-2.229,1.337-3.344,3.343-3.789,5.349s0,3.12-1.783,4.457c-1.783,1.338-4.011,2.229-4.457,4.234
			c-0.445,2.006-0.892,3.344-0.445,5.573c0.445,2.229,1.336,3.342,2.228,4.68s2.452,3.789,2.898,5.125
			c0.445,1.338,1.114,1.783,0.668,4.012c-0.445,2.229-1.337,3.789-2.675,5.795c-1.337,2.006-3.343,3.344-5.126,6.686
			c-1.782,3.344-4.234,6.463-4.011,10.475c0.223,4.012-0.224,7.355,0.668,10.475c0.892,3.121,2.675,5.35,3.789,8.471
			c1.114,3.119,1.337,4.234,1.114,7.354c-0.223,3.121-0.669,3.789,0.446,6.463c1.114,2.674,3.119,4.902,4.457,9.584
			c1.337,4.68,2.674,8.914,3.788,16.27c1.115,7.354,1.115,10.92,2.452,24.959c1.337,14.041,1.782,21.842,1.782,31.426
			c0,9.582,0.446,31.424,0.892,39.893c0.446,8.469,1.114,33.43,1.338,38.332c0.223,4.904,0.668,14.486,0.668,14.486h0.892
			c0,0-0.892-29.418-1.337-39.225c-0.446-9.805-0.669-20.057-0.892-30.979c-0.223-10.92-0.445-36.104-0.445-42.566
			s-1.783-25.184-2.897-31.201s-0.892-13.148-2.897-18.275c-2.006-5.125-4.234-10.029-5.349-12.703
			c-1.115-2.674-1.448-4.123-1.448-5.795s0.111-2.562,0.223-3.342c0.11-0.781,0.557-1.672,1.226-0.67
			c0.668,1.004,1.226,1.004,1.783,2.451c0.557,1.449,0.668,2.342,1.003,3.678c0.334,1.338,0-2.896-0.669-4.791
			s-1.003-3.232-2.452-4.68c-1.448-1.449-4.346-4.791-5.015-7.801c-0.668-3.008-1.225-5.238-1.113-8.357s0.334-5.238,1.671-8.58
			c1.337-3.344,2.229-5.906,3.566-7.021c1.337-1.113,1.894-0.111,3.677-2.227c1.783-2.119,1.783-3.232,2.117-5.461
			s0.558-2.006,1.337-4.012c0.78-2.006-0.223-1.115-0.892-2.898c-0.668-1.783-1.448-3.342-2.116-4.234
			c-0.669-0.891-2.006-2.562-2.897-4.123c-0.892-1.559-1.226-2.562-1.003-4.234c0.223-1.671,0-2.006,1.003-3.231
			s1.448-2.006,2.897-2.34c1.448-0.334,2.229-1.003,2.785,0.78c0.558,1.782,1.227,3.231,1.672,4.903
			c0.445,1.671,0.669,2.563,0.669,4.122c0,1.561,0.111,2.229-0.224,3.232c-0.334,1.002,1.337-1.338,1.448-3.789
			c0.112-2.452-0.668-4.457-1.225-6.909c-0.558-2.451-1.783-4.457-1.895-6.017c-0.111-1.561-0.892-3.232,0.223-4.346
			c1.114-1.115,1.895-1.449,4.123-2.118c2.229-0.668,4.791-0.668,6.909-1.226c2.116-0.558,3.008-0.892,5.571-1.56
			c2.562-0.669,3.565-1.003,4.234-1.226c0.669-0.224,2.562-1.004,2.562-1.004L367.454,237.574z"/>
		<path fill="#D1D3D4" d="M344.944,273.902c0,0,1.003-1.895,2.675-3.9c1.671-2.006,1.226-2.896,4.012-4.123
			c2.785-1.225,4.457-1.783,7.02-1.449c2.563,0.336,3.789,0.113,4.903,2.453s2.006,5.236,2.675,7.688
			c0.668,2.451,0.891,4.123,2.006,5.572c1.113,1.449,2.896,2.896,3.343,4.346c0.445,1.449-0.111,2.785,1.003,4.123
			s2.451,2.34,4.346,3.232c1.894,0.891,5.015,2.562,8.58,4.123c3.565,1.559,7.243,3.342,8.023,5.57
			c0.779,2.229,1.56,6.91,0.668,10.809c-0.891,3.9-1.225,5.795-2.116,8.357c-0.892,2.564-2.007,4.012-3.01,8.805
			c-1.003,4.791-2.228,9.025-3.119,13.371s-1.561,5.572-2.897,12.703c-1.337,7.133-2.452,12.035-3.566,19.055
			c-1.114,7.021-2.896,13.039-3.677,18.498c-0.78,5.461-1.114,6.129-1.895,11.924s-1.672,7.801-1.895,14.041
			s-1.337,16.604-1.003,23.512c0.334,6.91,0.334,26.188,0.669,34.99c0.334,8.803,1.337,21.172,1.337,23.957
			c0,2.787,0.335,5.684,0.335,5.684h-1.338c0,0-1.672-20.727-1.895-25.629c-0.223-4.904-0.78-17.83-0.892-25.072
			c-0.111-7.244,0.892-23.736,1.003-30.979c0.111-7.244,2.006-21.842,3.01-27.301c1.002-5.461,2.228-12.258,3.899-20.17
			c1.671-7.912,4.457-23.512,5.461-30.533c1.002-7.02,1.225-11.477,2.451-15.711c1.226-4.234,2.451-6.91,3.899-9.473
			c1.449-2.562,3.121-7.131,3.455-11.031s0.445-6.574-0.558-8.246s-1.226-2.898-4.457-4.457c-3.231-1.561-3.566-1.449-5.906-2.34
			c-2.34-0.893-4.234-1.115-5.349-2.117c-1.114-1.004-1.226-0.67-2.117-1.895c-0.892-1.227-1.56-1.449-1.56,0.334
			s-0.446,2.34,0.892,3.789c1.337,1.449,2.34,1.561,3.677,2.229s2.785,0.779,3.565,2.674s1.115,3.678,1.003,5.906
			c-0.111,2.229-0.557,3.678,0,5.125c0.558,1.449,0.892,1.672,1.672,2.676c0.779,1.002,2.117,1.783,1.783,4.012
			c-0.335,2.229-1.115,4.791-2.563,7.688c-1.448,2.898-2.34,5.684-4.568,9.361s-2.117,4.234-3.12,5.906s-1.226,2.562-2.229,4.68
			s-1.227,2.451-1.449,5.014c-0.223,2.564,0.446,1.783-0.111,6.018c-0.557,4.234-1.114,4.234-1.672,6.24
			c-0.557,2.006-0.334,7.244-0.445,8.805c-0.111,1.559-0.335,5.125-0.779,8.803c-0.446,3.678-0.78,6.463-1.227,9.025
			c-0.445,2.562-0.445,5.461-0.892,7.355c-0.445,1.895-0.557,3.564-1.003,5.348c-0.445,1.783-0.669,5.906-0.669,5.906
			s1.227-12.814,1.672-16.27c0.446-3.453,1.338-8.357,1.672-12.703s0.446-8.914,0.558-10.475s0.111-2.451-0.335-2.229
			c-0.445,0.223-1.114,0.557-1.337,1.338c-0.223,0.779-0.446,2.006-0.446,2.006s0.335-3.01,0.892-4.012
			c0.558-1.004,1.338-2.564,2.006-4.123c0.669-1.561,1.337-3.344,1.449-5.461c0.111-2.117-0.446-4.346-0.112-6.908
			c0.335-2.562,1.449-5.127,2.675-7.133s4.234-8.135,5.46-10.92s2.897-5.795,3.566-8.58s0.558-4.012,0.334-5.572
			c-0.223-1.561-1.003-2.785-1.672-3.787c-0.668-1.004-2.451-3.344-2.006-5.795c0.446-2.453,1.114-3.566,0.224-5.461
			c-0.892-1.895-1.561-2.451-2.786-3.008c-1.226-0.559-3.009-0.111-4.123-1.895s-1.337-3.678-1.003-5.795s0.558-3.9,0-5.906
			c-0.557-2.006-0.111-2.006-1.337-3.23c-1.226-1.227-1.783-1.338-2.451-2.676c-0.669-1.336-1.338-2.34-1.672-4.346
			c-0.335-2.006-0.111-1.447-0.78-3.789c-0.669-2.34-0.669-2.785-1.56-4.234c-0.892-1.449-1.003-1.783-2.006-2.34
			s-3.231-1.449-4.681-1.002c-1.448,0.445-2.451,0.334-3.677,1.225c-1.226,0.893-2.229,2.451-2.897,3.455
			c-0.669,1.004-1.114,2.451-1.672,3.23c-0.557,0.781-2.674,3.9-2.674,3.9L344.944,273.902z"/>
		<path fill="#D1D3D4" d="M375.031,395.699c0,0,3.454,12.145,4.123,19.834c0.668,7.689,2.786,24.738,3.12,30.422
			c0.335,5.682,2.451,21.506,2.562,26.186c0.111,4.682,0.892,14.041,0.892,17.273c0,3.23,0.669,17.828,0.669,17.828h-1.337
			c0,0-0.558-19.5-0.669-23.178s-1.003-12.258-1.671-19.611c-0.669-7.355-1.672-17.051-2.118-22.176
			c-0.445-5.127-1.895-15.379-2.674-23.178c-0.78-7.801-1.783-13.707-2.117-15.49c-0.335-1.781-1.449-3.9-1.449-3.9L375.031,395.699
			z"/>
		<path fill="#D1D3D4" d="M357.666,368.394c0.251,2.105,0.582,4.141,0.428,6.242c0.498-2.562-2.146-4.941-0.446-7.576
			C357.647,367.507,357.612,367.947,357.666,368.394z"/>
		<path fill="#D1D3D4" d="M357.617,381.32c-0.158,1.551,0.428,2.965,0.477,4.461c-1.037-2.322-1.456-4.682-0.446-7.133
			C357.647,379.541,357.708,380.429,357.617,381.32z"/>
		<path fill="#D1D3D4" d="M404.461,317.128c-1.029-1.17-2.321-0.854-3.577-0.883c1.337,0.148,2.95-0.609,3.892,0.545
			c2.06,2.523,3.318,5.994,1.012,8.816C405.895,322.31,406.994,320.005,404.461,317.128z"/>
		<path fill="#D1D3D4" d="M455.374,239.581c0,0-0.445,0.779-1.448,1.671s-1.114,1.003-1.338,2.563
			c-0.223,1.56-0.557,2.229-0.557,3.343s-0.334,1.671-0.334,2.451s1.003-2.229,1.226-3.788c0.223-1.561-0.111-1.672,0.78-2.786
			c0.892-1.115,1.337-1.337,1.671-2.006C455.709,240.36,455.374,239.581,455.374,239.581z"/>
	</g>
</g>
<g>
	<text transform="matrix(1 0 0 1 15.3555 523.52)" fill="#7F7F7F" font-family="'Myriad-Roman'" font-size="6.7497">cc</text>
	<circle fill="none" stroke="#81807F" stroke-width="0.3937" cx="18.485" cy="521.79" r="4.309"/>
	<text transform="matrix(1 0 0 1 24.8857 523.9663)" fill="#7F7F7F" font-family="'Myriad-Roman'" font-size="6.7497">Patrick J. Lynch, 2006</text>
</g>
</svg>
